<?xml version="1.0" encoding="UTF-8"?>
<svg width="1281px" height="1398px" viewBox="0 0 1281 1398" version="1.1" xmlns="http://www.w3.org/2000/svg" xmlns:xlink="http://www.w3.org/1999/xlink">
    <title>signet_podcast_plugins_center_white</title>
    <g id="signet_podcast_plugins_center_white" stroke="none" stroke-width="1" fill="none" fill-rule="evenodd">
        <path d="M55.3075414,1168.92222 C69.8208678,1168.92222 81.6374613,1173.73148 90.7573219,1183.35 C99.8771824,1192.96852 104.437113,1205.43333 104.437113,1220.74444 C104.437113,1235.66296 100.024277,1247.68611 91.1986054,1256.81389 C82.372934,1265.94167 70.899561,1270.50556 56.7784866,1270.50556 L35.596875,1270.50556 C34.6162449,1270.50556 34.1259298,1270.9963 34.1259298,1271.97778 L34.1259298,1335.57778 C34.1259298,1336.55926 33.7827092,1337.39352 33.0962681,1338.08056 C32.409827,1338.76759 31.5762913,1339.11111 30.5956612,1339.11111 L3.5302686,1339.11111 C2.54963843,1339.11111 1.71610279,1338.76759 1.02966167,1338.08056 C0.343220558,1337.39352 0,1336.55926 0,1335.57778 L0,1172.45556 C0,1171.47407 0.343220558,1170.63981 1.02966167,1169.95278 C1.71610279,1169.26574 2.54963843,1168.92222 3.5302686,1168.92222 L55.3075414,1168.92222 Z M49.7179494,1244.00556 C55.7978565,1244.00556 60.7500388,1241.99352 64.5744964,1237.96944 C68.3989541,1233.94537 70.3111829,1228.4 70.3111829,1221.33333 C70.3111829,1214.07037 68.3989541,1208.42685 64.5744964,1204.40278 C60.7500388,1200.3787 55.7978565,1198.36667 49.7179494,1198.36667 L35.596875,1198.36667 C34.6162449,1198.36667 34.1259298,1198.85741 34.1259298,1199.83889 L34.1259298,1242.53333 C34.1259298,1243.51481 34.6162449,1244.00556 35.596875,1244.00556 L49.7179494,1244.00556 Z M160.185938,1341.46667 C143.907477,1341.46667 131.110253,1337.14815 121.794267,1328.51111 C112.47828,1319.87407 107.820287,1308.19444 107.820287,1293.47222 L107.820287,1234.28889 C107.820287,1219.76296 112.527312,1208.13241 121.941361,1199.39722 C131.355411,1190.66204 144.103603,1186.29444 160.185938,1186.29444 C176.464398,1186.29444 189.310654,1190.66204 198.724703,1199.39722 C208.138753,1208.13241 212.845778,1219.76296 212.845778,1234.28889 L212.845778,1293.47222 C212.845778,1308.19444 208.187784,1319.87407 198.871798,1328.51111 C189.555811,1337.14815 176.660524,1341.46667 160.185938,1341.46667 Z M160.185938,1311.72778 C165.677467,1311.72778 170.139334,1309.81389 173.571539,1305.98611 C177.003745,1302.15833 178.719848,1297.1037 178.719848,1290.82222 L178.719848,1236.64444 C178.719848,1230.55926 177.003745,1225.5537 173.571539,1221.62778 C170.139334,1217.70185 165.677467,1215.73889 160.185938,1215.73889 C154.694409,1215.73889 150.281573,1217.65278 146.94743,1221.48056 C143.613288,1225.30833 141.946217,1230.36296 141.946217,1236.64444 L141.946217,1290.82222 C141.946217,1297.1037 143.613288,1302.15833 146.94743,1305.98611 C150.281573,1309.81389 154.694409,1311.72778 160.185938,1311.72778 Z M287.487851,1136.53333 C287.487851,1135.55185 287.831072,1134.71759 288.517513,1134.03056 C289.203954,1133.34352 290.03749,1133 291.01812,1133 L318.083512,1133 C319.064143,1133 319.897678,1133.34352 320.584119,1134.03056 C321.270561,1134.71759 321.613781,1135.55185 321.613781,1136.53333 L321.613781,1335.57778 C321.613781,1336.55926 321.270561,1337.39352 320.584119,1338.08056 C319.897678,1338.76759 319.064143,1339.11111 318.083512,1339.11111 L291.01812,1339.11111 C290.03749,1339.11111 289.203954,1338.76759 288.517513,1338.08056 C287.831072,1337.39352 287.487851,1336.55926 287.487851,1335.57778 L287.487851,1332.04444 C287.487851,1331.45556 287.291725,1331.06296 286.899473,1330.86667 C286.507221,1330.67037 286.114969,1330.76852 285.722717,1331.16111 C278.66218,1338.03148 269.836508,1341.46667 259.245703,1341.46667 C246.105258,1341.46667 235.906705,1337.14815 228.650041,1328.51111 C221.393378,1319.87407 217.765046,1308.29259 217.765046,1293.76667 L217.765046,1233.99444 C217.765046,1219.07593 221.44241,1207.3963 228.797136,1198.95556 C236.151862,1190.51481 246.301384,1186.29444 259.245703,1186.29444 C263.756601,1186.29444 268.365563,1187.1287 273.072588,1188.79722 C277.779613,1190.46574 281.996322,1193.16481 285.722717,1196.89444 C286.114969,1197.28704 286.507221,1197.38519 286.899473,1197.18889 C287.291725,1196.99259 287.487851,1196.6 287.487851,1196.01111 L287.487851,1136.53333 Z M269.836508,1312.02222 C274.543533,1312.02222 278.466054,1310.50093 281.60407,1307.45833 C284.742087,1304.41574 286.703347,1300.34259 287.487851,1295.23889 L287.487851,1232.52222 C286.703347,1227.41852 284.742087,1223.34537 281.60407,1220.30278 C278.466054,1217.26019 274.543533,1215.73889 269.836508,1215.73889 C264.344979,1215.73889 259.932144,1217.65278 256.598001,1221.48056 C253.263858,1225.30833 251.596787,1230.36296 251.596787,1236.64444 L251.596787,1291.11667 C251.596787,1297.39815 253.263858,1302.45278 256.598001,1306.28056 C259.932144,1310.10833 264.344979,1312.02222 269.836508,1312.02222 Z M380.010307,1341.46667 C363.927973,1341.46667 351.228812,1337.14815 341.912826,1328.51111 C332.596839,1319.87407 327.938846,1308.19444 327.938846,1293.47222 L327.938846,1233.99444 C327.938846,1219.66481 332.596839,1208.13241 341.912826,1199.39722 C351.228812,1190.66204 363.927973,1186.29444 380.010307,1186.29444 C396.092642,1186.29444 408.840834,1190.56389 418.254884,1199.10278 C427.668934,1207.64167 432.375958,1218.48704 432.375958,1231.63889 L432.375958,1235.76111 C432.375958,1236.74259 432.032738,1237.57685 431.346297,1238.26389 C430.659856,1238.95093 429.82632,1239.29444 428.84569,1239.29444 L401.780297,1240.47222 C399.426785,1240.47222 398.250029,1239.29444 398.250029,1236.93889 L398.250029,1233.99444 C398.250029,1229.08704 396.533926,1224.81759 393.10172,1221.18611 C389.669515,1217.55463 385.30571,1215.73889 380.010307,1215.73889 C374.714905,1215.73889 370.400132,1217.70185 367.065989,1221.62778 C363.731847,1225.5537 362.064775,1230.55926 362.064775,1236.64444 L362.064775,1291.11667 C362.064775,1297.20185 363.731847,1302.20741 367.065989,1306.13333 C370.400132,1310.05926 374.714905,1312.02222 380.010307,1312.02222 C385.30571,1312.02222 389.669515,1310.20648 393.10172,1306.575 C396.533926,1302.94352 398.250029,1298.57593 398.250029,1293.47222 L398.250029,1290.52778 C398.250029,1289.5463 398.593249,1288.71204 399.27969,1288.025 C399.966131,1287.33796 400.799667,1286.99444 401.780297,1286.99444 L428.84569,1287.28889 C429.82632,1287.28889 430.659856,1287.63241 431.346297,1288.31944 C432.032738,1289.00648 432.375958,1289.84074 432.375958,1290.82222 L432.375958,1296.12222 C432.375958,1309.66667 427.668934,1320.61019 418.254884,1328.95278 C408.840834,1337.29537 396.092642,1341.46667 380.010307,1341.46667 Z M491.949241,1186.29444 C507.443198,1186.29444 519.995264,1190.80926 529.605439,1199.83889 C539.215615,1208.86852 544.020703,1220.74444 544.020703,1235.46667 L544.020703,1335.57778 C544.020703,1336.55926 543.677482,1337.39352 542.991041,1338.08056 C542.3046,1338.76759 541.471064,1339.11111 540.490434,1339.11111 L513.425042,1339.11111 C512.444411,1339.11111 511.610876,1338.76759 510.924435,1338.08056 C510.237994,1337.39352 509.894773,1336.55926 509.894773,1335.57778 L509.894773,1329.98333 C509.894773,1329.39444 509.698647,1329.00185 509.306395,1328.80556 C508.914143,1328.60926 508.521891,1328.80556 508.129639,1329.39444 C501.265227,1337.44259 491.2628,1341.46667 478.122356,1341.46667 C466.943172,1341.46667 457.087839,1338.27685 448.556356,1331.89722 C440.024874,1325.51759 435.759132,1313.88704 435.759132,1297.00556 C435.759132,1279.33889 440.907441,1266.77593 451.204058,1259.31667 C461.500674,1251.85741 475.474654,1248.12778 493.125997,1248.12778 L508.423828,1248.12778 C509.404458,1248.12778 509.894773,1247.63704 509.894773,1246.65556 L509.894773,1239 C509.894773,1231.93333 508.129639,1226.28981 504.59937,1222.06944 C501.069101,1217.84907 496.656266,1215.73889 491.360863,1215.73889 C487.242216,1215.73889 483.810011,1217.06389 481.064246,1219.71389 C478.318482,1222.36389 476.65141,1225.9463 476.063032,1230.46111 C475.866906,1232.81667 474.592087,1233.99444 472.238575,1233.99444 L443.702237,1233.99444 C441.348724,1233.99444 440.270031,1232.81667 440.466157,1230.46111 C441.446787,1217.11296 446.693159,1206.41481 456.205271,1198.36667 C465.717384,1190.31852 477.63204,1186.29444 491.949241,1186.29444 Z M487.536405,1313.2 C493.420186,1313.2 498.617526,1311.33519 503.128425,1307.60556 C507.639324,1303.87593 509.894773,1298.67407 509.894773,1292 L509.894773,1275.21667 C509.894773,1274.23519 509.404458,1273.74444 508.423828,1273.74444 L493.125997,1273.74444 C486.457712,1273.74444 481.064246,1275.56019 476.945599,1279.19167 C472.826953,1282.82315 470.767629,1288.07407 470.767629,1294.94444 C470.767629,1301.02963 472.336638,1305.59352 475.474654,1308.63611 C478.612671,1311.6787 482.633254,1313.2 487.536405,1313.2 Z M597.710204,1186.88333 C613.008035,1186.88333 625.118817,1190.95648 634.042552,1199.10278 C642.966286,1207.24907 647.428154,1218.19259 647.428154,1231.93333 C647.428154,1232.91481 647.084933,1233.74907 646.398492,1234.43611 C645.712051,1235.12315 644.878515,1235.46667 643.897885,1235.46667 L619.186005,1235.46667 C618.205375,1235.46667 617.371839,1235.12315 616.685398,1234.43611 C615.998957,1233.74907 615.655736,1232.91481 615.655736,1231.93333 L615.655736,1230.16667 C615.655736,1225.45556 614.037697,1221.52963 610.801617,1218.38889 C607.565538,1215.24815 603.495922,1213.67778 598.592771,1213.67778 C593.493495,1213.67778 589.423879,1215.29722 586.383926,1218.53611 C583.343972,1221.775 581.823996,1225.65185 581.823996,1230.16667 C581.823996,1233.8963 583.000752,1237.03704 585.354264,1239.58889 C587.707777,1242.14074 590.355478,1244.15278 593.297369,1245.625 C596.239259,1247.09722 601.14241,1249.30556 608.006821,1252.25 C616.244114,1255.58704 623.157557,1258.875 628.747149,1262.11389 C634.336741,1265.35278 639.239892,1269.96574 643.456602,1275.95278 C647.673311,1281.93981 649.781666,1289.35 649.781666,1298.18333 C649.781666,1311.33519 645.172704,1321.73889 635.954781,1329.39444 C626.736857,1337.05 614.282854,1340.87778 598.592771,1340.87778 C583.098815,1340.87778 570.742875,1337.14815 561.524951,1329.68889 C552.307028,1322.22963 547.698066,1312.12037 547.698066,1299.36111 L547.698066,1297.3 C547.698066,1296.31852 548.041286,1295.48426 548.727728,1294.79722 C549.414169,1294.11019 550.247704,1293.76667 551.228334,1293.76667 L576.528593,1293.76667 C577.509223,1293.76667 578.342759,1294.11019 579.0292,1294.79722 C579.715641,1295.48426 580.058861,1296.31852 580.058861,1297.3 L580.058861,1298.77222 C580.058861,1303.48333 581.873027,1307.40926 585.501359,1310.55 C589.12969,1313.69074 593.591558,1315.26111 598.886961,1315.26111 C603.986237,1315.26111 608.006821,1313.78889 610.948712,1310.84444 C613.890602,1307.9 615.361547,1304.17037 615.361547,1299.65556 C615.361547,1295.72963 614.086728,1292.44167 611.53709,1289.79167 C608.987451,1287.14167 606.241687,1285.12963 603.299796,1283.75556 C600.357906,1282.38148 595.062503,1280.12407 587.413588,1276.98333 C576.234404,1272.66481 567.065512,1267.16852 559.906911,1260.49444 C552.748311,1253.82037 549.169011,1243.90741 549.169011,1230.75556 C549.169011,1217.01481 553.532815,1206.26759 562.260424,1198.51389 C570.988032,1190.76019 582.804626,1186.88333 597.710204,1186.88333 Z M692.720477,1151.25556 C693.701107,1151.25556 694.534642,1151.59907 695.221084,1152.28611 C695.907525,1152.97315 696.250745,1153.80741 696.250745,1154.78889 L696.250745,1187.17778 C696.250745,1188.15926 696.74106,1188.65 697.72169,1188.65 L715.961412,1188.65 C716.942042,1188.65 717.775577,1188.99352 718.462018,1189.68056 C719.14846,1190.36759 719.49168,1191.20185 719.49168,1192.18333 L719.49168,1209.26111 C719.49168,1210.24259 719.14846,1211.07685 718.462018,1211.76389 C717.775577,1212.45093 716.942042,1212.79444 715.961412,1212.79444 L697.72169,1212.79444 C696.74106,1212.79444 696.250745,1213.28519 696.250745,1214.26667 L696.250745,1291.41111 C696.250745,1298.28148 697.525564,1303.04167 700.075203,1305.69167 C702.624841,1308.34167 706.449299,1309.56852 711.548576,1309.37222 L713.607899,1309.37222 C714.588529,1309.37222 715.422065,1309.71574 716.108506,1310.40278 C716.794947,1311.08981 717.138168,1311.92407 717.138168,1312.90556 L717.138168,1335.57778 C717.138168,1336.55926 716.794947,1337.39352 716.108506,1338.08056 C715.422065,1338.76759 714.588529,1339.11111 713.607899,1339.11111 L703.605471,1339.11111 C690.268901,1339.11111 680.217442,1336.65741 673.451094,1331.75 C666.684746,1326.84259 663.301572,1317.61667 663.301572,1304.07222 L663.301572,1214.26667 C663.301572,1213.28519 662.811257,1212.79444 661.830626,1212.79444 L651.53401,1212.79444 C650.553379,1212.79444 649.719844,1212.45093 649.033403,1211.76389 C648.346962,1211.07685 648.003741,1210.24259 648.003741,1209.26111 L648.003741,1192.18333 C648.003741,1191.20185 648.346962,1190.36759 649.033403,1189.68056 C649.719844,1188.99352 650.553379,1188.65 651.53401,1188.65 L661.830626,1188.65 C662.811257,1188.65 663.301572,1188.15926 663.301572,1187.17778 L663.301572,1154.78889 C663.301572,1153.80741 663.644792,1152.97315 664.331233,1152.28611 C665.017674,1151.59907 665.85121,1151.25556 666.83184,1151.25556 L692.720477,1151.25556 Z M782.53349,1168.92222 C793.9088,1168.92222 803.077692,1173.09352 810.040166,1181.43611 C817.00264,1189.7787 820.483877,1200.62407 820.483877,1213.97222 C820.483877,1227.32037 817.00264,1238.06759 810.040166,1246.21389 C803.077692,1254.36019 793.9088,1258.43333 782.53349,1258.43333 L753.408774,1258.43333 C752.62427,1258.43333 752.232018,1258.82593 752.232018,1259.61111 L752.232018,1336.16667 C752.232018,1338.12963 751.251388,1339.11111 749.290127,1339.11111 L746.348237,1339.11111 C744.386976,1339.11111 743.406346,1338.12963 743.406346,1336.16667 L743.406346,1171.86667 C743.406346,1169.9037 744.386976,1168.92222 746.348237,1168.92222 L782.53349,1168.92222 Z M781.945112,1250.77778 C790.770783,1250.77778 797.929383,1247.39167 803.420912,1240.61944 C808.912441,1233.84722 811.658206,1224.96481 811.658206,1213.97222 C811.658206,1202.97963 808.912441,1194.09722 803.420912,1187.325 C797.929383,1180.55278 790.770783,1177.16667 781.945112,1177.16667 L753.408774,1177.16667 C752.62427,1177.16667 752.232018,1177.55926 752.232018,1178.34444 L752.232018,1249.6 C752.232018,1250.38519 752.62427,1250.77778 753.408774,1250.77778 L781.945112,1250.77778 Z M835.340424,1339.11111 C833.379164,1339.11111 832.398534,1338.12963 832.398534,1336.16667 L832.398534,1135.94444 C832.398534,1133.98148 833.379164,1133 835.340424,1133 L838.282315,1133 C840.243575,1133 841.224205,1133.98148 841.224205,1135.94444 L841.224205,1336.16667 C841.224205,1338.12963 840.243575,1339.11111 838.282315,1339.11111 L835.340424,1339.11111 Z M930.20922,1194.53889 C930.20922,1192.57593 931.18985,1191.59444 933.15111,1191.59444 L936.093001,1191.59444 C938.054261,1191.59444 939.034891,1192.57593 939.034891,1194.53889 L939.034891,1336.16667 C939.034891,1338.12963 938.054261,1339.11111 936.093001,1339.11111 L933.15111,1339.11111 C931.18985,1339.11111 930.20922,1338.12963 930.20922,1336.16667 L930.20922,1324.38889 C930.20922,1323.8 930.013094,1323.45648 929.620842,1323.35833 C929.22859,1323.26019 928.934401,1323.50556 928.738275,1324.09444 C922.658367,1335.47963 912.361751,1341.17222 897.848424,1341.17222 C886.080862,1341.17222 876.862939,1337.58981 870.194654,1330.425 C863.526368,1323.26019 860.192226,1312.61111 860.192226,1298.47778 L860.192226,1194.53889 C860.192226,1192.57593 861.172856,1191.59444 863.134116,1191.59444 L866.076007,1191.59444 C868.037267,1191.59444 869.017897,1192.57593 869.017897,1194.53889 L869.017897,1296.41667 C869.017897,1308.58704 871.616567,1317.71481 876.813907,1323.8 C882.011247,1329.88519 889.415005,1332.92778 899.02518,1332.92778 C908.635356,1332.92778 916.23524,1329.39444 921.824832,1322.32778 C927.414424,1315.26111 930.20922,1305.54444 930.20922,1293.17778 L930.20922,1194.53889 Z M1032.43991,1194.53889 C1032.43991,1192.57593 1033.42054,1191.59444 1035.38181,1191.59444 L1038.61788,1191.59444 C1040.57914,1191.59444 1041.55978,1192.57593 1041.55978,1194.53889 L1041.55978,1338.52222 C1041.55978,1378.17407 1024.49681,1398 990.37088,1398 C988.017368,1398 986.840612,1397.01852 986.840612,1395.05556 L986.840612,1392.99444 C986.840612,1391.03148 987.821242,1390.05 989.782502,1390.05 C1004.68808,1390.05 1015.52404,1385.63333 1022.29039,1376.8 C1029.05674,1367.96667 1032.43991,1355.10926 1032.43991,1338.22778 L1032.43991,1324.38889 C1032.43991,1323.8 1032.29282,1323.45648 1031.99863,1323.35833 C1031.70444,1323.26019 1031.36122,1323.40741 1030.96897,1323.8 C1027.63483,1329.2963 1023.32005,1333.56574 1018.02465,1336.60833 C1012.72925,1339.65093 1006.7474,1341.17222 1000.07912,1341.17222 C988.311557,1341.17222 978.799444,1337.2463 971.542781,1329.39444 C964.286118,1321.54259 960.657786,1311.33519 960.657786,1298.77222 L960.657786,1231.93333 C960.657786,1219.37037 964.286118,1209.11389 971.542781,1201.16389 C978.799444,1193.21389 988.311557,1189.23889 1000.07912,1189.23889 C1006.94353,1189.23889 1013.02344,1190.76019 1018.31884,1193.80278 C1023.61424,1196.84537 1027.83095,1201.11481 1030.96897,1206.61111 C1031.36122,1207.0037 1031.70444,1207.15093 1031.99863,1207.05278 C1032.29282,1206.95463 1032.43991,1206.61111 1032.43991,1206.02222 L1032.43991,1194.53889 Z M1001.55006,1332.92778 C1010.57186,1332.92778 1017.97562,1329.73796 1023.76134,1323.35833 C1029.54706,1316.9787 1032.43991,1308.68519 1032.43991,1298.47778 L1032.43991,1231.93333 C1032.43991,1221.72593 1029.54706,1213.43241 1023.76134,1207.05278 C1017.97562,1200.67315 1010.57186,1197.48333 1001.55006,1197.48333 C992.136015,1197.48333 984.438068,1200.67315 978.456224,1207.05278 C972.47438,1213.43241 969.483458,1221.72593 969.483458,1231.93333 L969.483458,1298.47778 C969.483458,1308.68519 972.47438,1316.9787 978.456224,1323.35833 C984.438068,1329.73796 992.136015,1332.92778 1001.55006,1332.92778 Z M1073.47929,1158.61667 C1069.75289,1158.61667 1066.71294,1157.43889 1064.35943,1155.08333 C1062.00591,1152.72778 1060.82916,1149.68519 1060.82916,1145.95556 C1060.82916,1142.42222 1062.00591,1139.47778 1064.35943,1137.12222 C1066.71294,1134.76667 1069.75289,1133.58889 1073.47929,1133.58889 C1077.00956,1133.58889 1079.95145,1134.76667 1082.30496,1137.12222 C1084.65847,1139.47778 1085.83523,1142.42222 1085.83523,1145.95556 C1085.83523,1149.68519 1084.65847,1152.72778 1082.30496,1155.08333 C1079.95145,1157.43889 1077.00956,1158.61667 1073.47929,1158.61667 Z M1072.00834,1339.11111 C1070.04708,1339.11111 1069.06645,1338.12963 1069.06645,1336.16667 L1069.06645,1194.53889 C1069.06645,1192.57593 1070.04708,1191.59444 1072.00834,1191.59444 L1074.95023,1191.59444 C1076.91149,1191.59444 1077.89212,1192.57593 1077.89212,1194.53889 L1077.89212,1336.16667 C1077.89212,1338.12963 1076.91149,1339.11111 1074.95023,1339.11111 L1072.00834,1339.11111 Z M1148.64459,1189.53333 C1160.21603,1189.53333 1169.23782,1193.45926 1175.70998,1201.31111 C1182.18214,1209.16296 1185.41822,1220.05741 1185.41822,1233.99444 L1185.41822,1336.16667 C1185.41822,1338.12963 1184.43759,1339.11111 1182.47633,1339.11111 L1179.53444,1339.11111 C1177.57318,1339.11111 1176.59255,1338.12963 1176.59255,1336.16667 L1176.59255,1235.17222 C1176.59255,1223.39444 1173.99388,1214.21759 1168.79654,1207.64167 C1163.5992,1201.06574 1156.19544,1197.77778 1146.58527,1197.77778 C1136.97509,1197.77778 1129.32617,1201.31111 1123.63852,1208.37778 C1117.95087,1215.44444 1115.10704,1225.16111 1115.10704,1237.52778 L1115.10704,1336.16667 C1115.10704,1338.12963 1114.12641,1339.11111 1112.16515,1339.11111 L1109.22326,1339.11111 C1107.262,1339.11111 1106.28137,1338.12963 1106.28137,1336.16667 L1106.28137,1194.53889 C1106.28137,1192.57593 1107.262,1191.59444 1109.22326,1191.59444 L1112.16515,1191.59444 C1114.12641,1191.59444 1115.10704,1192.57593 1115.10704,1194.53889 L1115.10704,1208.67222 C1115.10704,1209.26111 1115.30316,1209.55556 1115.69542,1209.55556 C1116.08767,1209.55556 1116.38186,1209.26111 1116.57798,1208.67222 C1119.716,1202.58704 1124.0798,1197.87593 1129.6694,1194.53889 C1135.25899,1191.20185 1141.58405,1189.53333 1148.64459,1189.53333 Z M1241.46123,1340.28889 C1229.8898,1340.28889 1220.47575,1336.90278 1213.21909,1330.13056 C1205.96242,1323.35833 1202.33409,1314.86852 1202.33409,1304.66111 L1202.33409,1303.18889 C1202.33409,1301.22593 1203.31472,1300.24444 1205.27598,1300.24444 L1207.92368,1300.24444 C1209.88494,1300.24444 1210.86557,1301.22593 1210.86557,1303.18889 L1210.86557,1304.36667 C1210.86557,1312.41481 1213.66037,1319.13796 1219.24996,1324.53611 C1224.83955,1329.93426 1232.34137,1332.63333 1241.75542,1332.63333 C1250.5811,1332.63333 1257.69066,1329.88519 1263.08413,1324.38889 C1268.4776,1318.89259 1271.17433,1311.62963 1271.17433,1302.6 C1271.17433,1296.12222 1269.70338,1290.82222 1266.76149,1286.7 C1263.8196,1282.57778 1260.2403,1279.28981 1256.02359,1276.83611 C1251.80688,1274.38241 1245.97213,1271.58519 1238.51934,1268.44444 C1230.6743,1265.10741 1224.39827,1262.06481 1219.69124,1259.31667 C1214.98422,1256.56852 1211.01267,1252.64259 1207.77659,1247.53889 C1204.54051,1242.43519 1202.92247,1235.95741 1202.92247,1228.10556 C1202.92247,1216.72037 1206.40371,1207.59259 1213.36618,1200.72222 C1220.32865,1193.85185 1229.59561,1190.41667 1241.16705,1190.41667 C1252.54236,1190.41667 1261.71125,1193.90093 1268.67372,1200.86944 C1275.6362,1207.83796 1279.11743,1216.81852 1279.11743,1227.81111 L1279.11743,1228.69444 C1279.11743,1230.65741 1278.1368,1231.63889 1276.17554,1231.63889 L1273.82203,1231.63889 C1271.86077,1231.63889 1270.88014,1230.65741 1270.88014,1228.69444 L1270.88014,1227.81111 C1270.88014,1219.37037 1268.08534,1212.35278 1262.49575,1206.75833 C1256.90616,1201.16389 1249.69853,1198.36667 1240.87286,1198.36667 C1232.04718,1198.36667 1224.98665,1201.11481 1219.69124,1206.61111 C1214.39584,1212.10741 1211.74814,1219.27222 1211.74814,1228.10556 C1211.74814,1233.99444 1213.07199,1238.95093 1215.71969,1242.975 C1218.36739,1246.99907 1221.70154,1250.18889 1225.72212,1252.54444 C1229.7427,1254.9 1235.1852,1257.55 1242.04961,1260.49444 C1250.48303,1264.02778 1257.15132,1267.21759 1262.05447,1270.06389 C1266.95762,1272.91019 1271.17433,1276.98333 1274.7046,1282.28333 C1278.23487,1287.58333 1280,1294.35556 1280,1302.6 C1280,1313.98519 1276.46973,1323.11296 1269.40919,1329.98333 C1262.34866,1336.8537 1253.03267,1340.28889 1241.46123,1340.28889 Z" id="Combined-Shape" fill="#FFFFFF" fill-rule="nonzero"></path>
        <path d="M128,512 C128,684.465242 213.272499,837.014025 343.955936,929.784788 L776.938576,419.230096 C815.568504,373.679223 883.810527,368.068688 929.3614,406.698616 C953.590086,427.246025 967.558585,457.407463 967.558585,489.175768 L967.558585,663.09047 C967.558585,717.045308 923.819546,760.784347 869.864708,760.784347 L579.062415,760.783604 L404.428307,966.70717 C474.946007,1003.31492 555.057374,1024 640,1024 C922.769792,1024 1152,794.769792 1152,512 C1152,339.534758 1066.7275,186.985975 936.044064,94.2152118 L503.061424,604.769904 C464.431496,650.320777 396.189473,655.931312 350.6386,617.301384 C326.409914,596.753975 312.441415,566.592537 312.441415,534.824232 L312.441415,360.90953 C312.441415,306.954692 356.180454,263.215653 410.135292,263.215653 L700.937585,263.216396 L875.571693,57.2928302 C805.053993,20.6850794 724.942626,0 640,0 C357.230208,0 128,229.230208 128,512 Z M638.426415,690.784347 L869.864708,690.784347 C885.006665,690.784347 897.310316,678.632116 897.554875,663.548439 L897.558585,663.09047 L897.558585,489.175768 C897.558585,477.970831 892.631783,467.332649 884.08613,460.085412 C868.01997,446.460325 843.950459,448.439206 830.325372,464.505366 L638.426415,690.784347 Z M382.441415,534.824232 C382.441415,546.029169 387.368217,556.667351 395.91387,563.914588 C411.98003,577.539675 436.049541,575.560794 449.674628,559.494634 L641.573585,333.215653 L410.135292,333.215653 C394.993335,333.215653 382.689684,345.367884 382.445125,360.451561 L382.441415,360.90953 L382.441415,534.824232 Z" id="Signet-Copy" fill="#FFFFFF"></path>
    </g>
</svg>