<?xml version="1.0" encoding="UTF-8" standalone="no"?>
<!-- Created with Inkscape (http://www.inkscape.org/) -->

<svg
   width="4000"
   height="3000"
   viewBox="0 0 1058.3333 793.75"
   version="1.1"
   id="svg5"
   xml:space="preserve"
   inkscape:version="1.2.1 (9c6d41e, 2022-07-14)"
   sodipodi:docname="PodcastPlugins+Signet horizontal.svg"
   inkscape:export-filename="PodcastPlugins+Signet.png"
   inkscape:export-xdpi="211.42172"
   inkscape:export-ydpi="211.42172"
   xmlns:inkscape="http://www.inkscape.org/namespaces/inkscape"
   xmlns:sodipodi="http://sodipodi.sourceforge.net/DTD/sodipodi-0.dtd"
   xmlns="http://www.w3.org/2000/svg"
   xmlns:svg="http://www.w3.org/2000/svg"><sodipodi:namedview
     id="namedview7"
     pagecolor="#ffffff"
     bordercolor="#000000"
     borderopacity="0.25"
     inkscape:showpageshadow="2"
     inkscape:pageopacity="0.0"
     inkscape:pagecheckerboard="0"
     inkscape:deskcolor="#d1d1d1"
     inkscape:document-units="mm"
     showgrid="false"
     inkscape:zoom="0.2102413"
     inkscape:cx="1874.0371"
     inkscape:cy="1417.4189"
     inkscape:window-width="1512"
     inkscape:window-height="916"
     inkscape:window-x="0"
     inkscape:window-y="38"
     inkscape:window-maximized="1"
     inkscape:current-layer="layer1" /><defs
     id="defs2" /><g
     inkscape:label="Layer 1"
     inkscape:groupmode="layer"
     id="layer1"><path
       d="m 268.92726,317.3829 c 0,90.64943 44.82007,170.83059 113.50857,219.59181 L 610.0158,268.62213 c 20.30428,-23.942 56.17295,-26.89097 80.11494,-6.58669 12.73485,10.79993 20.07682,26.65308 20.07682,43.35082 v 91.41128 c 0,28.3592 -22.98965,51.34888 -51.34885,51.34888 l -152.84856,-4.1e-4 -91.78944,108.23547 c 37.06478,19.24139 79.17212,30.11368 123.81883,30.11368 148.6266,0 269.11226,-120.48566 269.11226,-269.11226 0,-90.64944 -44.82007,-170.8306 -113.50859,-219.591829 L 466.06325,366.14369 c -20.30426,23.94197 -56.17296,26.89093 -80.11494,6.58667 -12.73484,-10.79994 -20.07683,-26.65309 -20.07683,-43.35084 v -91.41129 c 0,-28.35918 22.98968,-51.34885 51.34886,-51.34885 l 152.84858,3.8e-4 91.78943,-108.235489 C 624.79355,59.142896 582.68621,48.270623 538.03954,48.270623 c -148.62662,0 -269.11228,120.485667 -269.11228,269.112277 z m 268.28516,93.97082 h 121.64629 c 7.95876,0 14.42568,-6.38732 14.55422,-14.31547 l 0.003,-0.24071 v -91.41128 c 0,-5.88942 -2.58957,-11.48095 -7.08125,-15.29019 -8.44454,-7.16148 -21.09571,-6.12138 -28.25719,2.32318 z m -134.54824,-81.9742 c 0,5.88944 2.58959,11.48098 7.08126,15.2902 8.44454,7.16147 21.09569,6.12135 28.25719,-2.3232 L 538.86662,223.41205 H 417.22034 c -7.95875,0 -14.42569,6.38734 -14.55419,14.31548 l -0.003,0.2407 z"
       id="Signet"
       fill="#000000"
       style="fill-rule:evenodd;stroke:none;stroke-width:0.525611" /><path
       d="m 262.3545,659.12449 c 6.811,0 12.35649,2.25504 16.63633,6.76499 4.2799,4.51 6.41984,10.35458 6.41984,17.53372 0,6.99508 -2.07093,12.63261 -6.21272,16.91245 -4.14186,4.27992 -9.52623,6.41986 -16.15314,6.41986 h -9.94034 c -0.46021,0 -0.69031,0.23039 -0.69031,0.69028 v 29.82116 c 0,0.4602 -0.16085,0.85134 -0.48336,1.17349 -0.32245,0.32182 -0.71333,0.48334 -1.17353,0.48334 h -12.70159 c -0.46021,0 -0.85142,-0.16083 -1.17355,-0.48334 -0.32243,-0.32185 -0.48336,-0.71329 -0.48336,-1.17349 v -76.48569 c 0,-0.4602 0.16083,-0.85139 0.48336,-1.17353 0.32245,-0.32184 0.71334,-0.48335 1.17355,-0.48335 z m -2.62314,35.20554 c 2.85325,0 5.17727,-0.94343 6.97206,-2.83025 1.79483,-1.88681 2.69218,-4.48696 2.69218,-7.80045 0,-3.40548 -0.89735,-6.0517 -2.69218,-7.93845 -1.79479,-1.88688 -4.11881,-2.83025 -6.97206,-2.83025 h -6.62689 c -0.46021,0 -0.69031,0.2298 -0.69031,0.69028 v 20.01877 c 0,0.46019 0.23039,0.69035 0.69031,0.69035 z m 51.8418,45.69812 c -7.63935,0 -13.64497,-2.02487 -18.0169,-6.07467 -4.37196,-4.04983 -6.55787,-9.52623 -6.55787,-16.42928 v -27.75019 c 0,-6.811 2.20895,-12.26438 6.62692,-16.3602 4.4179,-4.09584 10.40055,-6.14369 17.94785,-6.14369 7.63942,0 13.66803,2.04785 18.08598,6.14369 4.41797,4.09582 6.62692,9.5492 6.62692,16.3602 v 27.75019 c 0,6.90305 -2.18597,12.37945 -6.55785,16.42928 -4.37196,4.0498 -10.42359,6.07467 -18.15505,6.07467 z m 0,-13.94414 c 2.57719,0 4.67113,-0.89742 6.28181,-2.69219 1.61069,-1.79482 2.41607,-4.16488 2.41607,-7.11015 v -25.40319 c 0,-2.85323 -0.80538,-5.20031 -2.41607,-7.04108 -1.61068,-1.84088 -3.70462,-2.76121 -6.28181,-2.76121 -2.57711,0 -4.64799,0.89743 -6.21274,2.6922 -1.56466,1.79478 -2.347,4.16477 -2.347,7.11009 v 25.40319 c 0,2.94527 0.78234,5.31533 2.347,7.11015 1.56475,1.79477 3.63563,2.69219 6.21274,2.69219 z m 59.74192,-82.14619 c 0,-0.4602 0.16083,-0.85138 0.48337,-1.17353 0.32182,-0.32185 0.71326,-0.48337 1.17346,-0.48337 h 12.70159 c 0.46021,0 0.85142,0.16083 1.17355,0.48337 0.32243,0.32244 0.48336,0.71333 0.48336,1.17353 v 93.32913 c 0,0.4602 -0.16083,0.85134 -0.48336,1.17349 -0.32184,0.32182 -0.71334,0.48334 -1.17355,0.48334 h -12.70159 c -0.4602,0 -0.85133,-0.16083 -1.17346,-0.48334 -0.32246,-0.32185 -0.48337,-0.71329 -0.48337,-1.17349 v -1.65677 c 0,-0.27673 -0.0919,-0.46019 -0.27612,-0.55223 -0.18409,-0.0922 -0.36817,-0.0427 -0.55223,0.13824 -3.3135,3.22138 -7.45529,4.83214 -12.42548,4.83214 -6.16673,0 -10.95284,-2.02487 -14.35831,-6.07474 -3.40553,-4.04973 -5.10826,-9.48015 -5.10826,-16.29108 v -28.02636 c 0,-6.99508 1.72577,-12.47152 5.17727,-16.42928 3.45153,-3.95771 8.21463,-5.93661 14.2893,-5.93661 2.1169,0 4.27992,0.39132 6.48887,1.17352 2.20894,0.78234 4.18785,2.04793 5.93661,3.79667 0.18409,0.18411 0.36817,0.23041 0.55223,0.13852 0.18411,-0.0922 0.27612,-0.27613 0.27612,-0.55225 z m -8.28371,82.28419 c 2.20902,0 4.04983,-0.71329 5.52246,-2.1399 1.47265,-1.42661 2.39309,-3.3365 2.76125,-5.72949 v -29.40698 c -0.36816,-2.39301 -1.2886,-4.30286 -2.76125,-5.72949 -1.47263,-1.42668 -3.31344,-2.13996 -5.52246,-2.13996 -2.57709,0 -4.64798,0.89743 -6.21272,2.6922 -1.56468,1.79478 -2.34702,4.16477 -2.34702,7.11009 v 25.54125 c 0,2.94535 0.78234,5.31538 2.34702,7.11016 1.56474,1.79477 3.63563,2.69212 6.21272,2.69212 z m 51.70381,13.80614 c -7.54729,0 -13.50697,-2.02487 -17.87886,-6.07467 -4.37193,-4.04983 -6.55791,-9.52623 -6.55791,-16.42928 v -27.88826 c 0,-6.71895 2.18598,-12.12631 6.55791,-16.22213 4.37189,-4.09584 10.33157,-6.14369 17.87886,-6.14369 7.54733,0 13.52998,2.00183 17.94792,6.00562 4.4179,4.00379 6.62692,9.08901 6.62692,15.25572 v 1.9329 c 0,0.4602 -0.16083,0.85127 -0.48335,1.17348 -0.32185,0.32183 -0.71329,0.48335 -1.17349,0.48335 l -12.70159,0.55226 c -1.10447,0 -1.6567,-0.55226 -1.6567,-1.65673 v -1.3806 c 0,-2.30104 -0.80538,-4.30288 -2.41609,-6.00566 -1.61076,-1.70274 -3.6586,-2.55414 -6.14373,-2.55414 -2.48508,0 -4.50995,0.92045 -6.07467,2.76119 -1.56468,1.84084 -2.34702,4.18785 -2.34702,7.04115 v 25.54121 c 0,2.85326 0.78234,5.20028 2.34702,7.04115 1.56472,1.84078 3.58959,2.76118 6.07467,2.76118 2.48513,0 4.53297,-0.85132 6.14373,-2.55414 1.61071,-1.70274 2.41609,-3.75065 2.41609,-6.14368 v -1.38064 c 0,-0.4602 0.16083,-0.85135 0.48335,-1.17348 0.32182,-0.32183 0.71329,-0.48336 1.17349,-0.48336 l 12.70159,0.13824 c 0.4602,0 0.85139,0.16083 1.17352,0.48338 0.32244,0.32182 0.48336,0.71327 0.48336,1.17346 v 2.48507 c 0,6.35087 -2.20895,11.4821 -6.62692,15.39385 -4.4179,3.91168 -10.40052,5.86757 -17.94792,5.86757 z m 52.53211,-72.75803 c 7.27124,0 13.1618,2.11693 17.67179,6.35079 4.51,4.23384 6.76499,9.80229 6.76499,16.70534 v 46.9407 c 0,0.4602 -0.16083,0.85134 -0.48338,1.17349 -0.32182,0.32182 -0.71325,0.48334 -1.17353,0.48334 h -12.70153 c -0.46019,0 -0.8514,-0.16083 -1.17355,-0.48334 -0.32243,-0.32185 -0.48334,-0.71329 -0.48334,-1.17349 v -2.62318 c 0,-0.27674 -0.0922,-0.4602 -0.27613,-0.55225 -0.18411,-0.0919 -0.36816,0 -0.55224,0.27613 -3.22143,3.77368 -7.91547,5.6605 -14.08218,5.6605 -5.24632,0 -9.87134,-1.49566 -13.87513,-4.48695 -4.00373,-2.99129 -6.00562,-8.44476 -6.00562,-16.36027 0,-8.28365 2.41607,-14.17425 7.24814,-17.67175 4.83215,-3.49756 11.39006,-5.24632 19.67369,-5.24632 h 7.17917 c 0.46021,0 0.6903,-0.2304 0.6903,-0.69028 v -3.58957 c 0,-3.31349 -0.82837,-5.95966 -2.48508,-7.93857 -1.65678,-1.97884 -3.72766,-2.96825 -6.21274,-2.96825 -1.93289,0 -3.54358,0.62098 -4.83213,1.86384 -1.28857,1.24254 -2.0709,2.92224 -2.34702,5.03921 -0.0922,1.10447 -0.69031,1.6567 -1.79483,1.6567 h -13.39191 c -1.10447,0 -1.61068,-0.55223 -1.51864,-1.6567 0.46018,-6.25878 2.92229,-11.27498 7.38626,-15.04861 4.46393,-3.7737 10.05542,-5.66051 16.7744,-5.66051 z m -2.07091,59.50419 c 2.76127,0 5.20031,-0.87436 7.31724,-2.62319 2.11696,-1.74874 3.17541,-4.18781 3.17541,-7.31716 v -7.8695 c 0,-0.46021 -0.22978,-0.6903 -0.69029,-0.6903 h -7.17915 c -3.12942,0 -5.66051,0.85132 -7.5934,2.55413 -1.93283,1.70275 -2.89925,4.16483 -2.89925,7.38622 0,2.85327 0.73631,4.99325 2.20895,6.41986 1.47264,1.42661 3.35952,2.13994 5.66049,2.13994 z m 51.7038,-59.22807 c 7.17917,0 12.86266,1.90979 17.05052,5.7295 4.18779,3.81964 6.28173,8.95094 6.28173,15.39378 0,0.4602 -0.16083,0.85135 -0.48337,1.17354 -0.32242,0.32184 -0.71333,0.48337 -1.17352,0.48337 h -11.59706 c -0.4602,0 -0.85141,-0.16083 -1.17355,-0.48337 -0.32243,-0.32183 -0.48335,-0.71334 -0.48335,-1.17354 v -0.82835 c 0,-2.20902 -0.75936,-4.04974 -2.278,-5.52244 -1.51867,-1.47262 -3.42853,-2.20895 -5.72952,-2.20895 -2.39307,0 -4.30293,0.7593 -5.72957,2.27801 -1.42661,1.51865 -2.13994,3.33642 -2.13994,5.45338 0,1.74876 0.55225,3.22138 1.65677,4.41797 1.10447,1.19651 2.34702,2.13989 3.72762,2.83024 1.3806,0.69025 3.68164,1.72573 6.90302,3.10637 3.86574,1.56468 7.11016,3.10638 9.73331,4.62502 2.62317,1.51867 4.92418,3.68165 6.90301,6.48886 1.97893,2.80721 2.96832,6.28175 2.96832,10.42352 0,6.1668 -2.16294,11.04495 -6.48886,14.6345 -4.32585,3.58962 -10.17043,5.38437 -17.53368,5.38437 -7.27125,0 -13.06975,-1.74874 -17.39567,-5.24632 -4.32592,-3.4975 -6.48887,-8.23761 -6.48887,-14.22026 v -0.9664 c 0,-0.46021 0.16085,-0.8514 0.48336,-1.17354 0.32246,-0.32184 0.71336,-0.48335 1.17355,-0.48335 h 11.87323 c 0.4602,0 0.85134,0.16084 1.17348,0.48335 0.32243,0.32183 0.48335,0.71333 0.48335,1.17354 v 0.69024 c 0,2.20902 0.85142,4.04986 2.55413,5.52248 1.70275,1.47266 3.79667,2.20897 6.28181,2.20897 2.39303,0 4.27985,-0.6903 5.66049,-2.07094 1.3806,-1.38056 2.07091,-3.1293 2.07091,-5.24628 0,-1.84077 -0.59857,-3.38248 -1.79478,-4.62501 -1.19657,-1.24262 -2.48512,-2.18598 -3.86572,-2.83027 -1.3806,-0.64434 -3.86572,-1.70278 -7.45529,-3.17542 -5.24631,-2.02487 -9.5492,-4.60198 -12.9087,-7.73138 -3.35946,-3.12935 -5.0392,-7.77743 -5.0392,-13.94413 0,-6.44284 2.04791,-11.48211 6.14372,-15.11769 4.09576,-3.6356 9.64126,-5.45337 16.63632,-5.45337 z m 44.58762,-16.70537 c 0.46019,0 0.85139,0.16083 1.17355,0.48336 0.32182,0.32184 0.48335,0.71331 0.48335,1.17352 v 15.18668 c 0,0.46019 0.23041,0.69028 0.69029,0.69028 h 8.55974 c 0.46021,0 0.85142,0.16083 1.17355,0.48338 0.32245,0.32181 0.48336,0.71332 0.48336,1.17352 v 8.00752 c 0,0.46021 -0.16083,0.85134 -0.48336,1.17354 -0.32244,0.32184 -0.71334,0.48334 -1.17355,0.48334 h -8.55974 c -0.46021,0 -0.69029,0.23041 -0.69029,0.69032 v 36.17196 c 0,3.22137 0.59795,5.45336 1.79476,6.69591 1.02563,1.06503 2.49075,1.63983 4.39544,1.72438 l 1.95536,0.001 c 0.4602,0 0.85141,0.16083 1.17355,0.48336 0.32183,0.32184 0.48336,0.71333 0.48336,1.17352 v 10.63071 c 0,0.4602 -0.16083,0.85135 -0.48336,1.17348 -0.32244,0.32183 -0.71335,0.48336 -1.17355,0.48336 h -4.69407 c -6.25877,0 -10.97581,-1.15042 -14.15121,-3.4515 -3.17542,-2.30097 -4.76311,-6.62689 -4.76311,-12.97771 v -42.10849 c 0,-0.46021 -0.2298,-0.69032 -0.69033,-0.69032 h -4.83208 c -0.46017,0 -0.85139,-0.16083 -1.17353,-0.48335 -0.32243,-0.32182 -0.48335,-0.71329 -0.48335,-1.17346 v -8.00759 c 0,-0.46021 0.16083,-0.85132 0.48335,-1.17347 0.32245,-0.32184 0.71336,-0.48337 1.17353,-0.48337 h 4.83208 c 0.46021,0 0.69033,-0.2298 0.69033,-0.6903 v -15.18673 c 0,-0.46017 0.16083,-0.85132 0.48335,-1.17352 0.32243,-0.32183 0.71332,-0.48336 1.17353,-0.48336 z m 42.14861,8.28362 c 5.3383,0 9.64125,1.95587 12.90867,5.86763 3.26745,3.91169 4.90114,8.99691 4.90114,15.25566 0,6.25881 -1.63369,11.29797 -4.90114,15.11772 -3.26742,3.81964 -7.57037,5.72949 -12.90867,5.72949 h -13.668 c -0.36816,0 -0.55223,0.1841 -0.55223,0.55226 v 35.89582 c 0,0.92047 -0.4602,1.38067 -1.38067,1.38067 h -1.3806 c -0.92038,0 -1.38058,-0.4602 -1.38058,-1.38067 V 660.5052 c 0,-0.92044 0.4602,-1.38064 1.38058,-1.38064 z m -0.2761,38.38091 c 4.14178,0 7.50128,-1.58765 10.07839,-4.76309 2.57716,-3.17542 3.86575,-7.34025 3.86575,-12.49453 0,-5.15423 -1.28859,-9.31905 -3.86575,-12.49449 -2.57711,-3.17537 -5.93661,-4.76307 -10.07839,-4.76307 h -13.3919 c -0.36816,0 -0.55223,0.18409 -0.55223,0.55224 v 33.41076 c 0,0.36814 0.1841,0.55225 0.55223,0.55225 z m 25.058,41.41827 c -0.92039,0 -1.3806,-0.46019 -1.3806,-1.38067 v -93.8813 c 0,-0.9204 0.46021,-1.38057 1.3806,-1.38057 h 1.38061 c 0.92038,0 1.38058,0.46017 1.38058,1.38057 v 93.8813 c 0,0.92048 -0.4602,1.38067 -1.38058,1.38067 z m 44.52126,-67.78788 c 0,-0.92039 0.46013,-1.3806 1.38061,-1.3806 h 1.38063 c 0.92049,0 1.38063,0.46021 1.38063,1.3806 V 737.543 c 0,0.92048 -0.46014,1.38067 -1.38063,1.38067 h -1.38063 c -0.92048,0 -1.38061,-0.46019 -1.38061,-1.38067 v -5.52237 c 0,-0.2761 -0.0926,-0.43763 -0.27604,-0.48336 -0.18523,-0.0427 -0.32189,0.0688 -0.41405,0.34501 -2.85319,5.33836 -7.68537,8.00749 -14.49637,8.00749 -5.52237,0 -9.84829,-1.67967 -12.97764,-5.03919 -3.12941,-3.35946 -4.69409,-8.35269 -4.69409,-14.97961 v -48.73548 c 0,-0.92041 0.4602,-1.3806 1.3806,-1.3806 h 1.3806 c 0.92039,0 1.3806,0.46019 1.3806,1.3806 v 47.76906 c 0,5.70645 1.21954,9.98637 3.6586,12.83966 2.43911,2.85323 5.91364,4.27984 10.42364,4.27984 4.50988,0 8.07642,-1.6567 10.69965,-4.97019 2.62322,-3.31343 3.93472,-7.86947 3.93472,-13.66801 z m 47.97618,0 c 0,-0.92039 0.46013,-1.3806 1.38063,-1.3806 h 1.51864 c 0.92026,0 1.38062,0.46021 1.38062,1.3806 v 67.51169 c 0,18.59221 -8.00771,27.88833 -24.02266,27.88833 -1.10437,0 -1.65666,-0.46019 -1.65666,-1.3806 v -0.96648 c 0,-0.92038 0.46014,-1.38053 1.38063,-1.38053 6.99505,0 12.08022,-2.07096 15.25575,-6.21273 3.17529,-4.14185 4.76305,-10.17051 4.76305,-18.08598 v -6.48886 c 0,-0.2761 -0.07,-0.43763 -0.20782,-0.48336 -0.13782,-0.0427 -0.29929,0.0244 -0.4834,0.20715 -1.56472,2.57709 -3.58956,4.57898 -6.07455,6.00555 -2.48522,1.42668 -5.29232,2.14001 -8.42176,2.14001 -5.52249,0 -9.98646,-1.84085 -13.39195,-5.52245 -3.40547,-3.68165 -5.10821,-8.46776 -5.10821,-14.35829 v -31.33989 c 0,-5.89053 1.70274,-10.69963 5.10821,-14.42731 3.40549,-3.72759 7.86946,-5.59143 13.39195,-5.59143 3.22138,0 6.07457,0.71329 8.55977,2.13994 2.48499,1.42661 4.464,3.42846 5.93654,6.00562 0.18524,0.18409 0.34517,0.25297 0.4834,0.20713 0.13782,-0.0427 0.20782,-0.20713 0.20782,-0.48334 z m -14.49654,64.88858 c 4.23403,0 7.70841,-1.4957 10.42358,-4.48699 2.71538,-2.99133 4.07296,-6.88004 4.07296,-11.66609 v -31.20177 c 0,-4.78611 -1.35758,-8.67483 -4.07296,-11.66612 -2.71517,-2.99133 -6.18955,-4.48702 -10.42358,-4.48702 -4.4179,0 -8.03051,1.49569 -10.83761,4.48702 -2.80733,2.99129 -4.21099,6.88001 -4.21099,11.66612 v 31.20177 c 0,4.78605 1.40366,8.67476 4.21099,11.66609 2.8071,2.99129 6.41971,4.48699 10.83761,4.48699 z m 33.75591,-81.73196 c -1.74859,0 -3.1753,-0.55223 -4.27988,-1.65677 -1.10437,-1.10448 -1.65666,-2.5311 -1.65666,-4.27985 0,-1.65676 0.55229,-3.03737 1.65666,-4.14184 1.10458,-1.10448 2.53129,-1.65673 4.27988,-1.65673 1.65666,0 3.03729,0.55225 4.14188,1.65673 1.10436,1.10447 1.65665,2.48508 1.65665,4.14184 0,1.74875 -0.55229,3.17537 -1.65665,4.27985 -1.10459,1.10447 -2.48522,1.65677 -4.14188,1.65677 z m -0.6903,84.63126 c -0.9205,0 -1.38063,-0.46019 -1.38063,-1.38067 v -66.40721 c 0,-0.92039 0.46013,-1.3806 1.38063,-1.3806 h 1.38061 c 0.92049,0 1.38063,0.46021 1.38063,1.3806 V 737.543 c 0,0.92048 -0.46014,1.38067 -1.38063,1.38067 z m 35.96486,-70.13488 c 5.43032,0 9.66435,1.84078 12.70164,5.52242 3.03727,3.68159 4.55591,8.78986 4.55591,15.32473 V 737.543 c 0,0.92048 -0.46013,1.38067 -1.38061,1.38067 h -1.38063 c -0.92027,0 -1.38063,-0.46019 -1.38063,-1.38067 v -47.35481 c 0,-5.52245 -1.21956,-9.82533 -3.65846,-12.90866 -2.43913,-3.08333 -5.91372,-4.62509 -10.42357,-4.62509 -4.51006,0 -8.09964,1.65677 -10.76872,4.97022 -2.66931,3.31346 -4.00385,7.8695 -4.00385,13.668 V 737.543 c 0,0.92048 -0.46013,1.38067 -1.38063,1.38067 h -1.38062 c -0.92048,0 -1.38062,-0.46019 -1.38062,-1.38067 v -66.40721 c 0,-0.92039 0.46014,-1.3806 1.38062,-1.3806 h 1.38062 c 0.9205,0 1.38063,0.46021 1.38063,1.3806 v 6.62691 c 0,0.27613 0.0926,0.41389 0.27603,0.41389 0.18522,0 0.3219,-0.13852 0.41406,-0.41389 1.47255,-2.85323 3.52044,-5.06223 6.14367,-6.62691 2.62301,-1.56468 5.5914,-2.347 8.90471,-2.347 z m 43.55828,70.68711 c -5.43055,0 -9.84845,-1.58771 -13.25392,-4.76312 -3.40549,-3.1754 -5.10822,-7.15613 -5.10822,-11.94219 v -0.69035 c 0,-0.92041 0.46013,-1.3806 1.38062,-1.3806 h 1.24261 c 0.92027,0 1.38039,0.46019 1.38039,1.3806 v 0.55222 c 0,3.77369 1.31173,6.92602 3.93474,9.45717 2.62322,2.53116 6.14389,3.79667 10.56181,3.79667 4.14185,0 7.47821,-1.28855 10.00928,-3.86567 2.53107,-2.57717 3.79671,-5.98269 3.79671,-10.21658 0,-3.0373 -0.69031,-5.52238 -2.07094,-7.45527 -1.38061,-1.93277 -3.06031,-3.47447 -5.03908,-4.62502 -1.97901,-1.15046 -4.71721,-2.46204 -8.21462,-3.93474 -3.68173,-1.56468 -6.62686,-2.99129 -8.83603,-4.27984 -2.20895,-1.28854 -4.07274,-3.12942 -5.59138,-5.52245 -1.51865,-2.39303 -2.27807,-5.4304 -2.27807,-9.11197 0,-5.33843 1.63384,-9.61827 4.9013,-12.83972 3.26723,-3.22138 7.61623,-4.8321 13.04656,-4.8321 5.3384,0 9.64132,1.63369 12.90878,4.90115 3.26745,3.26741 4.90107,7.47832 4.90107,12.63253 v 0.41388 c 0,0.92046 -0.46013,1.38067 -1.38061,1.38067 h -1.10437 c -0.92049,0 -1.38062,-0.46021 -1.38062,-1.38067 v -0.41388 c 0,-3.95776 -1.3115,-7.24814 -3.93473,-9.87133 -2.62323,-2.62313 -6.00566,-3.93473 -10.14753,-3.93473 -4.14187,0 -7.45519,1.28863 -9.9404,3.86572 -2.48498,2.57718 -3.72759,5.93664 -3.72759,10.07848 0,2.76118 0.62096,5.08521 1.8638,6.97203 1.2426,1.88681 2.80732,3.38256 4.69416,4.48696 1.88683,1.10448 4.44094,2.34701 7.66232,3.72768 3.95777,1.65671 7.08721,3.15237 9.38809,4.48696 2.30113,1.33456 4.27989,3.24442 5.93655,5.72949 1.65689,2.48515 2.48521,5.6605 2.48521,9.52617 0,5.33843 -1.65666,9.61827 -4.97019,12.83972 -3.31354,3.22138 -7.68537,4.83213 -13.1157,4.83213 z"
       id="path2716-5"
       fill="#000000"
       fill-rule="nonzero"
       style="stroke-width:6.31118" /></g></svg>
