<?xml version="1.0" encoding="UTF-8"?>
<svg width="1024px" height="1024px" viewBox="0 0 1024 1024" version="1.1" xmlns="http://www.w3.org/2000/svg" xmlns:xlink="http://www.w3.org/1999/xlink">
    <title>signet_podcast_plugins_black</title>
    <g id="signet_podcast_plugins_black" stroke="none" stroke-width="1" fill="none" fill-rule="evenodd">
        <path d="M-3.13509581e-14,512 C-3.13509581e-14,684.465242 85.2724987,837.014025 215.955936,929.784788 L648.938576,419.230096 C687.568504,373.679223 755.810527,368.068688 801.3614,406.698616 C825.590086,427.246025 839.558585,457.407463 839.558585,489.175768 L839.558585,663.09047 C839.558585,717.045308 795.819546,760.784347 741.864708,760.784347 L451.062415,760.783604 L276.428307,966.70717 C346.946007,1003.31492 427.057374,1024 512,1024 C794.769792,1024 1024,794.769792 1024,512 C1024,339.534758 938.727501,186.985975 808.044064,94.2152118 L375.061424,604.769904 C336.431496,650.320777 268.189473,655.931312 222.6386,617.301384 C198.409914,596.753975 184.441415,566.592537 184.441415,534.824232 L184.441415,360.90953 C184.441415,306.954692 228.180454,263.215653 282.135292,263.215653 L572.937585,263.216396 L747.571693,57.2928302 C677.053993,20.6850794 596.942626,5.68434189e-14 512,5.68434189e-14 C229.230208,5.68434189e-14 -3.13509581e-14,229.230208 -3.13509581e-14,512 Z M510.426415,690.784347 L741.864708,690.784347 C757.006665,690.784347 769.310316,678.632116 769.554875,663.548439 L769.558585,663.09047 L769.558585,489.175768 C769.558585,477.970831 764.631783,467.332649 756.08613,460.085412 C740.01997,446.460325 715.950459,448.439206 702.325372,464.505366 L510.426415,690.784347 Z M254.441415,534.824232 C254.441415,546.029169 259.368217,556.667351 267.91387,563.914588 C283.98003,577.539675 308.049541,575.560794 321.674628,559.494634 L513.573585,333.215653 L282.135292,333.215653 C266.993335,333.215653 254.689684,345.367884 254.445125,360.451561 L254.441415,360.90953 L254.441415,534.824232 Z" id="Signet" fill="#000000"></path>
    </g>
</svg>