<?xml version="1.0" encoding="UTF-8" standalone="no"?>
<svg
   width="181px"
   height="28px"
   viewBox="0 0 181 28"
   version="1.1"
   id="svg5504"
   sodipodi:docname="logo_power_plugins_signet_black.svg"
   inkscape:export-filename="logo_power_plugins_signet_black.png"
   inkscape:export-xdpi="1520.1899"
   inkscape:export-ydpi="1520.1899"
   inkscape:version="1.2.1 (9c6d41e, 2022-07-14)"
   xmlns:inkscape="http://www.inkscape.org/namespaces/inkscape"
   xmlns:sodipodi="http://sodipodi.sourceforge.net/DTD/sodipodi-0.dtd"
   xmlns="http://www.w3.org/2000/svg"
   xmlns:svg="http://www.w3.org/2000/svg"
   xmlns:rdf="http://www.w3.org/1999/02/22-rdf-syntax-ns#"
   xmlns:cc="http://creativecommons.org/ns#"
   xmlns:dc="http://purl.org/dc/elements/1.1/">
  <defs
     id="defs5508" />
  <sodipodi:namedview
     id="namedview5506"
     pagecolor="#ffffff"
     bordercolor="#000000"
     borderopacity="0.25"
     inkscape:showpageshadow="2"
     inkscape:pageopacity="0.0"
     inkscape:pagecheckerboard="0"
     inkscape:deskcolor="#d1d1d1"
     showgrid="false"
     inkscape:zoom="6.679558"
     inkscape:cx="65.722911"
     inkscape:cy="19.761787"
     inkscape:window-width="1512"
     inkscape:window-height="916"
     inkscape:window-x="0"
     inkscape:window-y="38"
     inkscape:window-maximized="1"
     inkscape:current-layer="svg5504" />
  <title
     id="title5497">logo_power_plugins_signet_track_black</title>
  <path
     d="m 98.3,14 c 0,4.715847 2.33167,8.887102 5.90504,11.423803 l 11.83937,-13.96048 c 1.05629,-1.245532 2.92228,-1.398945 4.16782,-0.342658 0.6625,0.561844 1.04445,1.38657 1.04445,2.255235 v 4.75548 c 0,1.475328 -1.19599,2.671317 -2.67132,2.671317 l -7.95162,-2e-5 -4.77515,5.630722 C 107.78681,27.434392 109.97735,28 112.3,28 c 7.73199,0 14,-6.268013 14,-14 0,-4.7158465 -2.33167,-8.8871023 -5.90505,-11.4238028 L 108.55559,16.536677 c -1.05629,1.245532 -2.92228,1.398945 -4.16782,0.342658 -0.6625,-0.561844 -1.04445,-1.38657 -1.04445,-2.255235 V 9.86862 c 0,-1.4753277 1.19599,-2.671317 2.67132,-2.671317 l 7.95162,2.03e-5 4.77515,-5.6307225 C 116.81319,0.56560764 114.62265,0 112.3,0 c -7.73199,0 -14,6.2680135 -14,14 z m 13.95697,4.888634 h 6.32839 c 0.41404,0 0.75047,-0.332287 0.75716,-0.744731 l 1e-4,-0.01252 V 13.3759 c 0,-0.306385 -0.13472,-0.597273 -0.36839,-0.79544 -0.43931,-0.37256 -1.09746,-0.31845 -1.47002,0.120859 z M 105.25738,14.6241 c 0,0.306385 0.13472,0.597273 0.36839,0.79544 0.43931,0.372561 1.09746,0.318451 1.47002,-0.120859 l 5.24724,-6.1873155 h -6.32839 c -0.41404,0 -0.75047,0.3322876 -0.75716,0.7447319 l -1e-4,0.012523 z"
     id="Signet"
     fill="#000000"
     style="fill-rule:evenodd;stroke:none;stroke-width:1" />
  <path
     d="m 4.1126044,7.8114847 c 1.0791941,0 1.9578623,0.3573007 2.6360045,1.0719022 0.6781422,0.7146015 1.0172133,1.6406671 1.0172133,2.7781961 0,1.108361 -0.3281333,2.001613 -0.9844,2.679755 -0.6562666,0.678142 -1.5094133,1.017213 -2.55944,1.017213 h -1.57504 c -0.072918,0 -0.1093778,0.03646 -0.1093778,0.109378 v 4.72512 c 0,0.07292 -0.025521,0.134899 -0.076564,0.185942 -0.051043,0.05104 -0.1130237,0.07657 -0.1859422,0.07657 H 0.26250667 c -0.0729185,0 -0.13489926,-0.02552 -0.18594223,-0.07657 C 0.02552148,20.327948 0,20.265968 0,20.193049 V 8.0739914 C 0,8.0010728 0.02552148,7.9390921 0.07656444,7.8880491 0.12760741,7.8370062 0.18958815,7.8114847 0.26250667,7.8114847 Z M 3.6969689,13.389751 c 0.4520948,0 0.8203333,-0.149483 1.1047155,-0.448448 0.2843823,-0.298966 0.4265734,-0.710956 0.4265734,-1.235969 0,-0.539597 -0.1421911,-0.958879 -0.4265734,-1.257845 C 4.5173022,10.148523 4.1490637,9.9990402 3.6969689,9.9990402 H 2.6469422 c -0.072918,0 -0.1093778,0.03646 -0.1093778,0.1093778 v 3.171956 c 0,0.07292 0.036459,0.109377 0.1093778,0.109377 z M 11.91124,20.63056 c -1.210447,0 -2.1620341,-0.320841 -2.85476,-0.962524 C 8.3637541,19.026353 8.0173911,18.158622 8.0173911,17.064845 v -4.396987 c 0,-1.079194 0.3500089,-1.943278 1.0500267,-2.592253 0.7000178,-0.6489751 1.6479582,-0.9734625 2.8438222,-0.9734625 1.210447,0 2.16568,0.3244874 2.865698,0.9734625 0.700018,0.648975 1.050026,1.513059 1.050026,2.592253 v 4.396987 c 0,1.093777 -0.346362,1.961508 -1.039088,2.603191 -0.692726,0.641683 -1.651605,0.962524 -2.876636,0.962524 z m 0,-2.209431 c 0.408344,0 0.740123,-0.142191 0.995338,-0.426573 0.255215,-0.284382 0.382822,-0.659913 0.382822,-1.126591 v -4.025102 c 0,-0.452095 -0.127607,-0.82398 -0.382822,-1.115654 -0.255215,-0.291674 -0.586994,-0.437511 -0.995338,-0.437511 -0.408344,0 -0.736477,0.142191 -0.9844,0.426573 -0.247923,0.284383 -0.371884,0.659913 -0.371884,1.126592 v 4.025102 c 0,0.466678 0.123961,0.842209 0.371884,1.126591 0.247923,0.284382 0.576056,0.426573 0.9844,0.426573 z M 21.377262,5.4051736 c 0,-0.072919 0.02552,-0.1348993 0.07656,-0.1859423 0.05104,-0.051043 0.113023,-0.076564 0.185942,-0.076564 h 2.012551 c 0.07292,0 0.134899,0.025521 0.185942,0.076564 0.05104,0.051043 0.07656,0.1130237 0.07656,0.1859423 V 20.193049 c 0,0.07292 -0.02552,0.134899 -0.07656,0.185942 -0.05104,0.05104 -0.113024,0.07657 -0.185942,0.07657 h -2.012551 c -0.07292,0 -0.134899,-0.02552 -0.185942,-0.07657 -0.05104,-0.05104 -0.07656,-0.113023 -0.07656,-0.185942 v -0.262506 c 0,-0.04375 -0.01458,-0.07292 -0.04375,-0.0875 -0.02917,-0.01458 -0.05834,-0.0073 -0.0875,0.02188 -0.525013,0.510429 -1.18128,0.765644 -1.9688,0.765644 -0.977108,0 -1.735461,-0.320841 -2.275058,-0.962524 -0.539597,-0.641683 -0.809395,-1.502122 -0.809395,-2.581316 V 12.64599 c 0,-1.108362 0.273444,-1.976092 0.820333,-2.603192 0.546889,-0.6270989 1.301595,-0.9406485 2.26412,-0.9406485 0.335425,0 0.678142,0.061981 1.028151,0.1859422 0.350009,0.1239615 0.663558,0.3244874 0.940649,0.6015778 0.02917,0.029167 0.05833,0.036459 0.0875,0.021876 0.02917,-0.014584 0.04375,-0.043751 0.04375,-0.087502 z M 20.064729,18.443005 c 0.350009,0 0.641683,-0.113024 0.875022,-0.339071 0.233339,-0.226048 0.379176,-0.52866 0.437511,-0.907836 v -4.659493 c -0.05834,-0.379177 -0.204172,-0.681788 -0.437511,-0.907836 -0.233339,-0.226047 -0.525013,-0.339071 -0.875022,-0.339071 -0.408344,0 -0.736477,0.142191 -0.9844,0.426573 -0.247923,0.284383 -0.371885,0.659913 -0.371885,1.126592 v 4.046977 c 0,0.466679 0.123962,0.842209 0.371885,1.126591 0.247923,0.284383 0.576056,0.426574 0.9844,0.426574 z m 8.192395,2.187555 c -1.195863,0 -2.140158,-0.320841 -2.832884,-0.962524 -0.692726,-0.641683 -1.039089,-1.509414 -1.039089,-2.603191 v -4.418862 c 0,-1.064611 0.346363,-1.921403 1.039089,-2.570378 0.692726,-0.6489751 1.637021,-0.9734625 2.832884,-0.9734625 1.195864,0 2.143805,0.3171955 2.843823,0.9515865 0.700017,0.634391 1.050026,1.440141 1.050026,2.417249 v 0.306258 c 0,0.07292 -0.02552,0.134899 -0.07656,0.185942 -0.05104,0.05104 -0.113024,0.07656 -0.185942,0.07656 l -2.012551,0.0875 c -0.175005,0 -0.262507,-0.0875 -0.262507,-0.262507 v -0.218755 c 0,-0.364593 -0.127608,-0.681789 -0.382822,-0.951587 -0.255215,-0.269799 -0.579703,-0.404698 -0.973463,-0.404698 -0.39376,0 -0.714601,0.145837 -0.962524,0.437511 -0.247923,0.291674 -0.371884,0.663559 -0.371884,1.115654 v 4.046977 c 0,0.452095 0.123961,0.823979 0.371884,1.115654 0.247923,0.291674 0.568764,0.437511 0.962524,0.437511 0.39376,0 0.718248,-0.1349 0.973463,-0.404698 0.255214,-0.269799 0.382822,-0.594286 0.382822,-0.973462 v -0.218756 c 0,-0.07292 0.02552,-0.134899 0.07656,-0.185942 0.05104,-0.05104 0.113024,-0.07656 0.185943,-0.07656 l 2.012551,0.02188 c 0.07292,0 0.134899,0.02552 0.185942,0.07656 0.05104,0.05104 0.07656,0.113024 0.07656,0.185943 v 0.39376 c 0,1.006275 -0.350009,1.819317 -1.050026,2.439124 -0.700018,0.619807 -1.647959,0.929711 -2.843823,0.929711 z M 36.580773,9.1021425 c 1.152113,0 2.08547,0.3354251 2.800071,1.0062755 0.714602,0.67085 1.071903,1.553165 1.071903,2.646942 v 7.437689 c 0,0.07292 -0.02552,0.134899 -0.07657,0.185942 -0.05104,0.05104 -0.113023,0.07657 -0.185942,0.07657 h -2.012551 c -0.07292,0 -0.134899,-0.02552 -0.185942,-0.07657 -0.05104,-0.05104 -0.07656,-0.113023 -0.07656,-0.185942 v -0.415635 c 0,-0.04375 -0.01458,-0.07292 -0.04375,-0.0875 -0.02917,-0.01458 -0.05833,0 -0.0875,0.04375 -0.51043,0.597932 -1.254199,0.896898 -2.231307,0.896898 -0.831271,0 -1.564102,-0.236985 -2.198493,-0.710955 -0.634391,-0.473971 -0.951587,-1.338055 -0.951587,-2.592254 0,-1.312533 0.382822,-2.24589 1.148467,-2.800071 0.765644,-0.55418 1.804733,-0.831271 3.117267,-0.831271 h 1.137528 c 0.07292,0 0.109378,-0.03646 0.109378,-0.109378 v -0.568764 c 0,-0.525013 -0.131253,-0.944295 -0.39376,-1.257844 -0.262506,-0.31355 -0.59064,-0.470325 -0.9844,-0.470325 -0.306258,0 -0.561472,0.09844 -0.765644,0.29532 -0.204172,0.19688 -0.328134,0.463033 -0.371885,0.798458 -0.01458,0.175004 -0.109377,0.262507 -0.284382,0.262507 h -2.121929 c -0.175004,0 -0.255215,-0.0875 -0.240631,-0.262507 0.07292,-0.991692 0.463033,-1.786504 1.170342,-2.3844358 0.70731,-0.5979318 1.59327,-0.8968977 2.65788,-0.8968977 z M 36.25264,18.530507 c 0.437511,0 0.823979,-0.138545 1.159404,-0.415636 0.335426,-0.27709 0.503138,-0.663558 0.503138,-1.159404 V 15.70856 c 0,-0.07292 -0.03646,-0.109377 -0.109378,-0.109377 h -1.137528 c -0.495846,0 -0.896898,0.134899 -1.203156,0.404697 -0.306258,0.269799 -0.459387,0.659913 -0.459387,1.170342 0,0.452095 0.11667,0.791166 0.350009,1.017214 0.233339,0.226047 0.532305,0.339071 0.896898,0.339071 z m 8.192396,-9.3846134 c 1.137528,0 2.038072,0.3026118 2.701631,0.9078354 0.663558,0.605224 0.995337,1.418265 0.995337,2.439125 0,0.07292 -0.02552,0.134899 -0.07656,0.185942 -0.05104,0.05104 -0.113024,0.07656 -0.185942,0.07656 h -1.837547 c -0.07292,0 -0.134899,-0.02552 -0.185942,-0.07656 -0.05104,-0.05104 -0.07657,-0.113024 -0.07657,-0.185942 V 12.3616 c 0,-0.350009 -0.120315,-0.641683 -0.360946,-0.875022 -0.240631,-0.233339 -0.543243,-0.350009 -0.907836,-0.350009 -0.379176,0 -0.681788,0.120316 -0.907835,0.360947 -0.226048,0.240631 -0.339071,0.528659 -0.339071,0.864084 0,0.277091 0.0875,0.51043 0.262506,0.700018 0.175005,0.189588 0.371885,0.339071 0.59064,0.448449 0.218756,0.109378 0.583348,0.273444 1.093778,0.4922 0.612516,0.247923 1.126591,0.4922 1.542227,0.732831 0.415635,0.240631 0.780228,0.583348 1.093777,1.028151 0.31355,0.444803 0.470325,0.995338 0.470325,1.651605 0,0.977108 -0.342717,1.750044 -1.028151,2.318808 -0.685434,0.568765 -1.6115,0.853147 -2.778196,0.853147 -1.152112,0 -2.070886,-0.27709 -2.75632,-0.831271 -0.685434,-0.554181 -1.028151,-1.305242 -1.028151,-2.253182 v -0.153129 c 0,-0.07292 0.02552,-0.134899 0.07657,-0.185942 0.05104,-0.05104 0.113023,-0.07656 0.185942,-0.07656 H 42.87 c 0.07292,0 0.134899,0.02552 0.185942,0.07656 0.05104,0.05104 0.07656,0.113023 0.07656,0.185942 v 0.109378 c 0,0.350009 0.134899,0.641683 0.404698,0.875022 0.269798,0.233339 0.601578,0.350009 0.995338,0.350009 0.379176,0 0.678142,-0.109378 0.896898,-0.328134 0.218755,-0.218755 0.328133,-0.495846 0.328133,-0.831271 0,-0.291674 -0.09479,-0.535951 -0.284382,-0.732831 -0.189589,-0.19688 -0.39376,-0.346363 -0.612516,-0.448449 -0.218755,-0.102086 -0.612515,-0.269798 -1.18128,-0.503137 -0.831271,-0.320842 -1.513059,-0.729186 -2.045364,-1.225031 -0.532306,-0.495846 -0.798458,-1.232323 -0.798458,-2.209432 0,-1.020859 0.324487,-1.819317 0.973462,-2.395373 0.648975,-0.5760563 1.527643,-0.8640844 2.636005,-0.8640844 z m 7.064853,-2.6469423 c 0.07292,0 0.134899,0.025521 0.185942,0.076564 0.05104,0.051043 0.07657,0.1130237 0.07657,0.1859422 v 2.4063111 c 0,0.072919 0.03646,0.1093778 0.109377,0.1093778 h 1.356285 c 0.07292,0 0.134899,0.025521 0.185942,0.076564 0.05104,0.051043 0.07656,0.1130238 0.07656,0.1859423 v 1.2687823 c 0,0.07292 -0.02552,0.134899 -0.07656,0.185942 -0.05104,0.05104 -0.113024,0.07656 -0.185942,0.07656 h -1.356285 c -0.07292,0 -0.109377,0.03646 -0.109377,0.109378 v 5.731396 c 0,0.510429 0.09479,0.864084 0.284382,1.060964 0.162504,0.168754 0.394653,0.259828 0.696446,0.273221 l 0.309829,2.24e-4 c 0.07292,0 0.1349,0.02552 0.185943,0.07656 0.05104,0.05104 0.07656,0.113024 0.07656,0.185942 v 1.684418 c 0,0.07292 -0.02552,0.134899 -0.07656,0.185942 -0.05104,0.05104 -0.113024,0.07657 -0.185943,0.07657 h -0.743769 c -0.991691,0 -1.739106,-0.182296 -2.242244,-0.546889 -0.503138,-0.364593 -0.754707,-1.050027 -0.754707,-2.056302 V 11.18032 c 0,-0.07292 -0.03646,-0.109378 -0.109377,-0.109378 h -0.765645 c -0.07292,0 -0.134899,-0.02552 -0.185942,-0.07656 -0.05104,-0.05104 -0.07657,-0.113024 -0.07657,-0.185942 V 9.5396536 c 0,-0.072919 0.02552,-0.1348993 0.07657,-0.1859423 0.05104,-0.051043 0.113024,-0.076564 0.185942,-0.076564 h 0.765645 c 0.07292,0 0.109377,-0.036459 0.109377,-0.1093778 V 6.761458 c 0,-0.072919 0.02552,-0.1348993 0.07657,-0.1859422 0.05104,-0.051043 0.113023,-0.076564 0.185942,-0.076564 z m 6.678391,1.3125334 c 0.845855,0 1.527643,0.3099037 2.045364,0.9297111 0.517722,0.6198074 0.776583,1.4255572 0.776583,2.4172492 0,0.991692 -0.258861,1.790149 -0.776583,2.395373 -0.517721,0.605224 -1.199509,0.907836 -2.045364,0.907836 H 56.0226 c -0.05833,0 -0.0875,0.02917 -0.0875,0.0875 V 20.2368 c 0,0.145837 -0.07292,0.218756 -0.218756,0.218756 h -0.218755 c -0.145837,0 -0.218756,-0.07292 -0.218756,-0.218756 V 8.0302402 c 0,-0.145837 0.07292,-0.2187555 0.218756,-0.2187555 z m -0.04375,6.0814043 c 0.656267,0 1.188572,-0.251569 1.596915,-0.754707 0.408344,-0.503137 0.612516,-1.16305 0.612516,-1.979737 0,-0.816688 -0.204172,-1.4766003 -0.612516,-1.9797381 C 59.333101,8.6755691 58.800796,8.4240002 58.144529,8.4240002 H 56.0226 c -0.05833,0 -0.0875,0.029167 -0.0875,0.087502 v 5.2938848 c 0,0.05833 0.02917,0.0875 0.0875,0.0875 z m 3.970413,6.562667 c -0.145837,0 -0.218755,-0.07292 -0.218755,-0.218756 V 5.3614225 c 0,-0.1458371 0.07292,-0.2187556 0.218755,-0.2187556 h 0.218756 c 0.145837,0 0.218755,0.072919 0.218755,0.2187556 V 20.2368 c 0,0.145837 -0.07292,0.218756 -0.218755,0.218756 z M 69.169276,9.714658 c 0,-0.145837 0.07292,-0.2187555 0.218755,-0.2187555 h 0.218756 c 0.145837,0 0.218755,0.072919 0.218755,0.2187555 V 20.2368 c 0,0.145837 -0.07292,0.218756 -0.218755,0.218756 h -0.218756 c -0.145837,0 -0.218755,-0.07292 -0.218755,-0.218756 v -0.875022 c 0,-0.04375 -0.01458,-0.06927 -0.04375,-0.07656 -0.02917,-0.0073 -0.05104,0.01094 -0.06563,0.05469 -0.452095,0.845855 -1.217739,1.268783 -2.296934,1.268783 -0.875022,0 -1.560456,-0.266153 -2.056302,-0.798458 -0.495846,-0.532305 -0.743769,-1.323471 -0.743769,-2.373498 V 9.714658 c 0,-0.145837 0.07292,-0.2187555 0.218756,-0.2187555 h 0.218755 c 0.145837,0 0.218756,0.072919 0.218756,0.2187555 V 17.2836 c 0,0.90419 0.193234,1.582332 0.579702,2.034427 0.386468,0.452095 0.937003,0.678142 1.651605,0.678142 0.714601,0 1.27972,-0.262507 1.695355,-0.78752 0.415636,-0.525013 0.623454,-1.246907 0.623454,-2.16568 z m 7.601755,0 c 0,-0.145837 0.07292,-0.2187555 0.218756,-0.2187555 h 0.240631 c 0.145837,0 0.218755,0.072919 0.218755,0.2187555 v 10.697147 c 0,2.945908 -1.268782,4.418862 -3.806346,4.418862 -0.175005,0 -0.262507,-0.07292 -0.262507,-0.218756 v -0.153128 c 0,-0.145838 0.07292,-0.218756 0.218756,-0.218756 1.108361,0 1.914111,-0.328133 2.417248,-0.9844 0.503138,-0.656267 0.754707,-1.611499 0.754707,-2.865698 v -1.028151 c 0,-0.04375 -0.01094,-0.06927 -0.03281,-0.07656 -0.02188,-0.0073 -0.0474,0.0036 -0.07657,0.03281 -0.247923,0.408344 -0.568764,0.725539 -0.962524,0.951587 -0.39376,0.226047 -0.838563,0.339071 -1.334409,0.339071 -0.875022,0 -1.582332,-0.291674 -2.121929,-0.875023 -0.539597,-0.583348 -0.809395,-1.3417 -0.809395,-2.275057 v -4.965751 c 0,-0.933357 0.269798,-1.695356 0.809395,-2.285996 0.539597,-0.59064 1.246907,-0.88596 2.121929,-0.88596 0.51043,0 0.962525,0.1130237 1.356285,0.3390711 0.39376,0.2260474 0.707309,0.5432429 0.940648,0.9515869 0.02917,0.02917 0.05469,0.04011 0.07657,0.03281 0.02187,-0.0073 0.03281,-0.03281 0.03281,-0.07656 z m -2.296933,10.281511 c 0.67085,0 1.221385,-0.236985 1.651604,-0.710955 0.430219,-0.473971 0.645329,-1.090132 0.645329,-1.848485 v -4.943875 c 0,-0.758353 -0.21511,-1.374515 -0.645329,-1.848485 -0.430219,-0.47397 -0.980754,-0.7109554 -1.651604,-0.7109554 -0.700018,0 -1.272428,0.2369854 -1.717231,0.7109554 -0.444803,0.47397 -0.667205,1.090132 -0.667205,1.848485 v 4.943875 c 0,0.758353 0.222402,1.374514 0.667205,1.848485 0.444803,0.47397 1.017213,0.710955 1.717231,0.710955 z M 79.822671,7.0458402 c -0.27709,0 -0.503138,-0.087502 -0.678142,-0.2625066 -0.175004,-0.1750045 -0.262507,-0.4010519 -0.262507,-0.6781423 0,-0.2625066 0.0875,-0.4812622 0.262507,-0.6562666 0.175004,-0.1750045 0.401052,-0.2625067 0.678142,-0.2625067 0.262507,0 0.481262,0.087502 0.656267,0.2625067 0.175004,0.1750044 0.262506,0.39376 0.262506,0.6562666 0,0.2770904 -0.0875,0.5031378 -0.262506,0.6781423 -0.175005,0.1750044 -0.39376,0.2625066 -0.656267,0.2625066 z M 79.713293,20.455556 c -0.145837,0 -0.218755,-0.07292 -0.218755,-0.218756 V 9.714658 c 0,-0.145837 0.07292,-0.2187555 0.218755,-0.2187555 h 0.218756 c 0.145837,0 0.218756,0.072919 0.218756,0.2187555 V 20.2368 c 0,0.145837 -0.07292,0.218756 -0.218756,0.218756 z M 85.411876,9.3427736 c 0.860438,0 1.531288,0.291674 2.012551,0.8750224 0.481262,0.583348 0.721893,1.392744 0.721893,2.428187 V 20.2368 c 0,0.145837 -0.07292,0.218756 -0.218755,0.218756 h -0.218756 c -0.145837,0 -0.218756,-0.07292 -0.218756,-0.218756 v -7.503315 c 0,-0.875022 -0.193234,-1.556811 -0.579702,-2.045365 -0.386468,-0.488554 -0.937003,-0.7328309 -1.651604,-0.7328309 -0.714602,0 -1.283366,0.2625069 -1.706294,0.7875199 -0.422927,0.525013 -0.634391,1.246907 -0.634391,2.16568 V 20.2368 c 0,0.145837 -0.07292,0.218756 -0.218755,0.218756 h -0.218756 c -0.145837,0 -0.218755,-0.07292 -0.218755,-0.218756 V 9.714658 c 0,-0.145837 0.07292,-0.2187555 0.218755,-0.2187555 h 0.218756 c 0.145837,0 0.218755,0.072919 0.218755,0.2187555 v 1.050027 c 0,0.04375 0.01458,0.06563 0.04375,0.06563 0.02917,0 0.05104,-0.02187 0.06563,-0.06563 0.233339,-0.452095 0.557827,-0.802104 0.973462,-1.050027 0.415636,-0.2479229 0.88596,-0.3718844 1.410974,-0.3718844 z m 6.901737,11.2002844 c -0.860438,0 -1.560456,-0.251569 -2.100053,-0.754707 -0.539597,-0.503137 -0.809396,-1.133883 -0.809396,-1.892235 v -0.109378 c 0,-0.145837 0.07292,-0.218756 0.218756,-0.218756 h 0.19688 c 0.145837,0 0.218756,0.07292 0.218756,0.218756 v 0.0875 c 0,0.597932 0.207817,1.097424 0.623453,1.498476 0.415636,0.401052 0.973462,0.601578 1.67348,0.601578 0.656267,0 1.184926,-0.204172 1.585978,-0.612516 0.401052,-0.408344 0.601577,-0.947941 0.601577,-1.618791 0,-0.481262 -0.109377,-0.875022 -0.328133,-1.18128 -0.218755,-0.306258 -0.484908,-0.550535 -0.798458,-0.732831 -0.313549,-0.182296 -0.747414,-0.390114 -1.301595,-0.623454 -0.583348,-0.247922 -1.050027,-0.47397 -1.400036,-0.678142 -0.350009,-0.204172 -0.645329,-0.495846 -0.88596,-0.875022 -0.240631,-0.379176 -0.360946,-0.860438 -0.360946,-1.443787 0,-0.845854 0.25886,-1.523997 0.776582,-2.034426 0.517721,-0.5104299 1.206801,-0.7656448 2.06724,-0.7656448 0.845855,0 1.527643,0.2588608 2.045364,0.7765828 0.517722,0.517721 0.776583,1.184925 0.776583,2.001613 v 0.06563 c 0,0.145837 -0.07292,0.218755 -0.218756,0.218755 h -0.175004 c -0.145838,0 -0.218756,-0.07292 -0.218756,-0.218755 v -0.06563 c 0,-0.627099 -0.207818,-1.148467 -0.623453,-1.564102 -0.415636,-0.415636 -0.951587,-0.6234538 -1.607854,-0.6234538 -0.656266,0 -1.18128,0.2041718 -1.57504,0.6125158 -0.39376,0.408343 -0.59064,0.940649 -0.59064,1.596915 0,0.437512 0.09844,0.80575 0.29532,1.104716 0.19688,0.298966 0.444803,0.535951 0.743769,0.710956 0.298966,0.175004 0.703664,0.371884 1.214094,0.59064 0.627099,0.262506 1.122945,0.499491 1.487537,0.710955 0.364593,0.211464 0.678142,0.514076 0.940649,0.907836 0.262507,0.39376 0.39376,0.896897 0.39376,1.509413 0,0.845855 -0.262507,1.523997 -0.78752,2.034427 -0.525013,0.510429 -1.217739,0.765644 -2.078178,0.765644 z"
     id="path5501"
     fill="#000000"
     fill-rule="nonzero"
     style="stroke:none;stroke-width:1" />
  <metadata
     id="metadata6009">
    <rdf:RDF>
      <cc:Work
         rdf:about="">
        <dc:title>logo_power_plugins_signet_track_black</dc:title>
      </cc:Work>
    </rdf:RDF>
  </metadata>
</svg>
