<?xml version="1.0" encoding="UTF-8"?>
<svg width="148px" height="28px" viewBox="0 0 148 28" version="1.1" xmlns="http://www.w3.org/2000/svg" xmlns:xlink="http://www.w3.org/1999/xlink">
    <title>logo_power_plugins_track_black</title>
    <g id="logo_power_plugins_track_black" stroke="none" stroke-width="1" fill="none" fill-rule="evenodd">
        <path d="M131.839426,7.59155556 C133.259471,7.59155556 134.386723,7.97218619 135.221183,8.73344745 C135.998217,9.44232084 136.413471,10.3796872 136.466944,11.5455464 L136.891076,8.07466366 C136.905716,7.97218619 136.945975,7.89166817 137.011853,7.83310961 C137.077732,7.77455105 137.15459,7.74527177 137.242428,7.74527177 L140.624185,7.74527177 C140.712022,7.74527177 140.781561,7.77455105 140.832799,7.83310961 C140.884038,7.89166817 140.902338,7.97218619 140.887698,8.07466366 L140.426549,11.9395285 C140.41191,11.9980871 140.422889,12.0346862 140.459489,12.0493258 C140.496088,12.0639655 140.529027,12.042006 140.558306,11.9834474 L143.522833,7.96486637 C143.625311,7.81846997 143.764387,7.74527177 143.940063,7.74527177 L147.607293,7.74527177 C147.768329,7.74527177 147.848847,7.79651051 147.848847,7.89898799 C147.848847,7.98682583 147.812248,8.06734384 147.739049,8.14054204 L143.698509,13.2570961 C143.63995,13.301015 143.625311,13.3595736 143.65459,13.4327718 L146.399522,20.0425691 C146.414162,20.0718483 146.421482,20.1157673 146.421482,20.1743258 C146.421482,20.3500015 146.326324,20.4378393 146.136009,20.4378393 L142.42486,20.4378393 C142.249185,20.4378393 142.132067,20.3573213 142.073509,20.1962853 L140.602225,16.3314204 C140.587585,16.2728619 140.565626,16.2472425 140.536347,16.2545623 C140.507067,16.2618821 140.477788,16.2875015 140.448509,16.3314204 L139.811685,17.3415556 C139.767766,17.4001141 139.745806,17.4513529 139.745806,17.4952718 L139.416414,20.1084474 C139.401775,20.2109249 139.365176,20.2914429 139.306617,20.3500015 C139.248058,20.4085601 139.16754,20.4378393 139.065063,20.4378393 L135.705266,20.4378393 C135.602788,20.4378393 135.52593,20.4085601 135.474691,20.3500015 C135.423453,20.2914429 135.405153,20.2109249 135.419793,20.1084474 L135.835662,16.7254146 C135.665308,17.2631931 135.420222,17.7577063 135.100406,18.2089542 C134.566059,18.9628956 133.877996,19.5484812 133.036216,19.965711 C132.194437,20.3829407 131.26116,20.5915556 130.236385,20.5915556 C128.801701,20.5915556 127.670789,20.1853056 126.843649,19.3728056 C126.579412,19.1132455 126.357382,18.8249253 126.177557,18.5078451 L126.473498,20.0645285 L126.473498,20.1523664 C126.473498,20.3426817 126.363701,20.4378393 126.144106,20.4378393 L122.806269,20.4378393 C122.630593,20.4378393 122.528115,20.3426817 122.498836,20.1523664 L122.34512,19.0983123 C122.34512,19.0251141 122.308521,18.988515 122.235323,18.988515 L118.765728,18.988515 C118.69253,18.988515 118.648611,19.0251141 118.633971,19.0983123 L118.216741,20.1523664 C118.143543,20.3426817 118.019106,20.4378393 117.843431,20.4378393 L111.842151,20.4378393 C111.666475,20.4378393 111.556678,20.3573213 111.512759,20.1962853 L110.239111,16.2875015 C110.239111,16.2289429 110.209831,16.1996637 110.151273,16.1996637 C110.107354,16.1996637 110.070755,16.2435826 110.041475,16.3314204 L109.580327,20.1084474 C109.565687,20.2109249 109.529088,20.2914429 109.470529,20.3500015 C109.411971,20.4085601 109.331453,20.4378393 109.228975,20.4378393 L105.869178,20.4378393 C105.766701,20.4378393 105.689842,20.4085601 105.638604,20.3500015 C105.587365,20.2914429 105.569065,20.2109249 105.583705,20.1084474 L106.659419,11.3026877 L103.580893,11.3027042 C103.507695,11.3027042 103.456456,11.3466231 103.427177,11.434461 L102.373123,20.1084474 C102.358483,20.2109249 102.318224,20.2914429 102.252346,20.3500015 C102.186468,20.4085601 102.10229,20.4378393 101.999812,20.4378393 L98.640015,20.4378393 C98.5375375,20.4378393 98.4606794,20.4085601 98.4094407,20.3500015 C98.358202,20.2914429 98.3399024,20.2109249 98.354542,20.1084474 L99.4305556,11.434461 C99.4305556,11.3466231 99.3939565,11.3027042 99.3207583,11.3027042 L96.2903529,11.3027042 C96.1878754,11.3027042 96.1110173,11.2734249 96.0597785,11.2148664 C96.0085398,11.1563078 95.9902402,11.0757898 96.0048799,10.9733123 L96.3562312,8.07466366 C96.4001502,7.85506907 96.5245871,7.74527177 96.729542,7.74527177 L107.094407,7.74527177 C107.158214,7.74527177 107.212088,7.75662283 107.256031,7.77932496 C107.300394,7.75680823 107.351204,7.74527177 107.40634,7.74527177 L112.918165,7.74527177 C114.103975,7.74527177 115.044572,8.07100375 115.739955,8.72246772 C116.435338,9.37393168 116.783029,10.2486502 116.783029,11.3466231 C116.783029,12.3421186 116.548795,13.2131772 116.080327,13.9597988 C115.611858,14.7064204 114.982354,15.2773664 114.191813,15.6726366 C114.118615,15.7165556 114.089336,15.7751141 114.103975,15.8483123 L115.043,18.2745556 L119.51235,8.00878529 C119.585548,7.83310961 119.717305,7.74527177 119.90762,7.74527177 L123.860323,7.74527177 C124.035998,7.74527177 124.145796,7.83310961 124.189714,8.00878529 L125.617498,15.545054 C125.62465,15.4326958 125.634437,15.3361467 125.646858,15.2554069 L125.932331,12.8837853 C126.064088,11.8297312 126.39714,10.903774 126.931487,10.1059137 C127.465834,9.3080533 128.157557,8.68952853 129.006656,8.25033934 C129.855755,7.81115015 130.800012,7.59155556 131.839426,7.59155556 Z M131.400237,11.1270285 C131.034246,11.1270285 130.719493,11.2770848 130.45598,11.5771974 C130.192466,11.8773101 130.024111,12.2762402 129.950912,12.773988 L129.621521,15.4310826 C129.606881,15.5042808 129.599561,15.6067583 129.599561,15.738515 C129.599561,16.1337853 129.698379,16.4521974 129.896014,16.6937515 C130.093649,16.9353056 130.353502,17.0560826 130.675575,17.0560826 C131.041566,17.0560826 131.352658,16.9060263 131.608852,16.6059137 C131.865045,16.3058011 132.022421,15.9141907 132.08098,15.4310826 C132.110259,15.2700465 132.227376,15.1968483 132.432331,15.211488 L135.770169,15.3871637 C135.866953,15.3940768 135.940886,15.4124159 135.991966,15.4421809 L136.324802,12.7103013 C136.270756,12.7399438 136.195675,12.7611727 136.099561,12.773988 L132.695845,12.9935826 L132.629966,12.9935826 C132.454291,12.9935826 132.381093,12.9203844 132.410372,12.773988 C132.425012,12.7007898 132.432331,12.5983123 132.432331,12.4665556 C132.432331,12.0566456 132.340834,11.7309137 132.157838,11.4893596 C131.974843,11.2478056 131.722309,11.1270285 131.400237,11.1270285 Z M121.378904,11.961488 C121.334985,11.961488 121.305705,11.9907673 121.291066,12.0493258 L119.929579,15.6726366 C119.88566,15.7751141 119.91494,15.8263529 120.017417,15.8263529 L121.774174,15.8263529 C121.862012,15.8263529 121.905931,15.7751141 121.905931,15.6726366 L121.444782,12.0493258 C121.444782,11.9907673 121.422823,11.961488 121.378904,11.961488 Z M111.908029,11.2807447 L110.788097,11.2807447 C110.700259,11.2807447 110.65634,11.3246637 110.65634,11.4125015 L110.458705,12.9277042 C110.458705,13.015542 110.495304,13.059461 110.568502,13.059461 L111.688435,13.059461 C111.995867,13.059461 112.248401,12.9643033 112.446036,12.773988 C112.643671,12.5836727 112.742489,12.3347988 112.742489,12.0273664 C112.742489,11.8077718 112.665631,11.6284362 112.511915,11.4893596 C112.358198,11.350283 112.156903,11.2807447 111.908029,11.2807447 Z" id="Combined-Shape" fill="#000000" fill-rule="nonzero"></path>
        <path d="M4.11260444,7.81148468 C5.19179852,7.81148468 6.07046667,8.16878542 6.74860889,8.8833869 C7.42675111,9.59798838 7.76582222,10.5240536 7.76582222,11.6615825 C7.76582222,12.7699439 7.43768889,13.6631958 6.78142222,14.341338 C6.12515556,15.0194802 5.27200889,15.3585513 4.22198222,15.3585513 L2.64694222,15.3585513 C2.5740237,15.3585513 2.53756444,15.3950106 2.53756444,15.4679291 L2.53756444,20.1930491 C2.53756444,20.2659676 2.51204296,20.3279484 2.461,20.3789913 C2.40995704,20.4300343 2.3479763,20.4555558 2.27505778,20.4555558 L0.262506667,20.4555558 C0.189588148,20.4555558 0.127607407,20.4300343 0.0765644444,20.3789913 C0.0255214815,20.3279484 0,20.2659676 0,20.1930491 L0,8.07399135 C0,8.00107283 0.0255214815,7.93909209 0.0765644444,7.88804912 C0.127607407,7.83700616 0.189588148,7.81148468 0.262506667,7.81148468 L4.11260444,7.81148468 Z M3.69696889,13.3897513 C4.1490637,13.3897513 4.51730222,13.2402684 4.80168444,12.9413025 C5.08606667,12.6423365 5.22825778,12.2303469 5.22825778,11.7053336 C5.22825778,11.1657365 5.08606667,10.746455 4.80168444,10.4474891 C4.51730222,10.1485232 4.1490637,9.99904023 3.69696889,9.99904023 L2.64694222,9.99904023 C2.5740237,9.99904023 2.53756444,10.0354995 2.53756444,10.108418 L2.53756444,13.2803736 C2.53756444,13.3532921 2.5740237,13.3897513 2.64694222,13.3897513 L3.69696889,13.3897513 Z M11.91124,20.6305602 C10.7007926,20.6305602 9.74920593,20.3097188 9.05648,19.6680358 C8.36375407,19.0263528 8.01739111,18.1586225 8.01739111,17.0648447 L8.01739111,12.667858 C8.01739111,11.5886639 8.3674,10.7245795 9.06741778,10.0756047 C9.76743556,9.42662986 10.7153763,9.10214246 11.91124,9.10214246 C13.1216874,9.10214246 14.07692,9.42662986 14.7769378,10.0756047 C15.4769556,10.7245795 15.8269644,11.5886639 15.8269644,12.667858 L15.8269644,17.0648447 C15.8269644,18.1586225 15.4806015,19.0263528 14.7878756,19.6680358 C14.0951496,20.3097188 13.1362711,20.6305602 11.91124,20.6305602 Z M11.91124,18.4211291 C12.3195837,18.4211291 12.651363,18.278938 12.9065778,17.9945558 C13.1617926,17.7101736 13.2894,17.3346432 13.2894,16.8679647 L13.2894,12.8428625 C13.2894,12.3907676 13.1617926,12.0188832 12.9065778,11.7272091 C12.651363,11.435535 12.3195837,11.289698 11.91124,11.289698 C11.5028963,11.289698 11.174763,11.4318891 10.92684,11.7162713 C10.678917,12.0006536 10.5549556,12.3761839 10.5549556,12.8428625 L10.5549556,16.8679647 C10.5549556,17.3346432 10.678917,17.7101736 10.92684,17.9945558 C11.174763,18.278938 11.5028963,18.4211291 11.91124,18.4211291 Z M21.3772622,5.40517357 C21.3772622,5.33225505 21.4027837,5.27027431 21.4538267,5.21923135 C21.5048696,5.16818838 21.5668504,5.1426669 21.6397689,5.1426669 L23.65232,5.1426669 C23.7252385,5.1426669 23.7872193,5.16818838 23.8382622,5.21923135 C23.8893052,5.27027431 23.9148267,5.33225505 23.9148267,5.40517357 L23.9148267,20.1930491 C23.9148267,20.2659676 23.8893052,20.3279484 23.8382622,20.3789913 C23.7872193,20.4300343 23.7252385,20.4555558 23.65232,20.4555558 L21.6397689,20.4555558 C21.5668504,20.4555558 21.5048696,20.4300343 21.4538267,20.3789913 C21.4027837,20.3279484 21.3772622,20.2659676 21.3772622,20.1930491 L21.3772622,19.9305425 C21.3772622,19.8867913 21.3626785,19.8576239 21.3335111,19.8430402 C21.3043437,19.8284565 21.2751763,19.8357484 21.2460089,19.8649158 C20.7209956,20.3753454 20.0647289,20.6305602 19.2772089,20.6305602 C18.3001007,20.6305602 17.5417482,20.3097188 17.0021511,19.6680358 C16.4625541,19.0263528 16.1927556,18.1659143 16.1927556,17.0867202 L16.1927556,12.6459825 C16.1927556,11.537621 16.4662,10.6698906 17.0130889,10.0427913 C17.5599778,9.41569209 18.3146844,9.10214246 19.2772089,9.10214246 C19.6126341,9.10214246 19.9553511,9.1641232 20.30536,9.28808468 C20.6553689,9.41204616 20.9689185,9.61257209 21.2460089,9.88966246 C21.2751763,9.91882986 21.3043437,9.92612172 21.3335111,9.91153801 C21.3626785,9.89695431 21.3772622,9.8677869 21.3772622,9.82403579 L21.3772622,5.40517357 Z M20.0647289,18.4430047 C20.4147378,18.4430047 20.7064119,18.329981 20.9397511,18.1039336 C21.1730904,17.8778862 21.3189274,17.5752743 21.3772622,17.196098 L21.3772622,12.5366047 C21.3189274,12.1574284 21.1730904,11.8548165 20.9397511,11.6287691 C20.7064119,11.4027217 20.4147378,11.289698 20.0647289,11.289698 C19.6563852,11.289698 19.3282519,11.4318891 19.0803289,11.7162713 C18.8324059,12.0006536 18.7084444,12.3761839 18.7084444,12.8428625 L18.7084444,16.8898402 C18.7084444,17.3565188 18.8324059,17.7320491 19.0803289,18.0164313 C19.3282519,18.3008136 19.6563852,18.4430047 20.0647289,18.4430047 Z M28.2571244,20.6305602 C27.0612607,20.6305602 26.1169659,20.3097188 25.42424,19.6680358 C24.7315141,19.0263528 24.3851511,18.1586225 24.3851511,17.0648447 L24.3851511,12.6459825 C24.3851511,11.5813721 24.7315141,10.7245795 25.42424,10.0756047 C26.1169659,9.42662986 27.0612607,9.10214246 28.2571244,9.10214246 C29.4529882,9.10214246 30.4009289,9.41933801 31.1009467,10.0537291 C31.8009644,10.6881202 32.1509733,11.4938699 32.1509733,12.470978 L32.1509733,12.7772358 C32.1509733,12.8501543 32.1254519,12.912135 32.0744089,12.963178 C32.0233659,13.014221 31.9613852,13.0397425 31.8884667,13.0397425 L29.8759156,13.1272447 C29.7009111,13.1272447 29.6134089,13.0397425 29.6134089,12.864738 L29.6134089,12.6459825 C29.6134089,12.2813899 29.4858015,11.9641943 29.2305867,11.6943958 C28.9753719,11.4245973 28.6508844,11.289698 28.2571244,11.289698 C27.8633644,11.289698 27.542523,11.435535 27.2946,11.7272091 C27.046677,12.0188832 26.9227156,12.3907676 26.9227156,12.8428625 L26.9227156,16.8898402 C26.9227156,17.341935 27.046677,17.7138195 27.2946,18.0054936 C27.542523,18.2971676 27.8633644,18.4430047 28.2571244,18.4430047 C28.6508844,18.4430047 28.9753719,18.3081054 29.2305867,18.0383069 C29.4858015,17.7685084 29.6134089,17.444021 29.6134089,17.0648447 L29.6134089,16.8460891 C29.6134089,16.7731706 29.6389304,16.7111899 29.6899733,16.6601469 C29.7410163,16.6091039 29.802997,16.5835825 29.8759156,16.5835825 L31.8884667,16.605458 C31.9613852,16.605458 32.0233659,16.6309795 32.0744089,16.6820225 C32.1254519,16.7330654 32.1509733,16.7950462 32.1509733,16.8679647 L32.1509733,17.2617247 C32.1509733,18.2680002 31.8009644,19.0810417 31.1009467,19.7008491 C30.4009289,20.3206565 29.4529882,20.6305602 28.2571244,20.6305602 Z M36.5807733,9.10214246 C37.7328859,9.10214246 38.666243,9.43756764 39.3808444,10.108418 C40.0954459,10.7792684 40.4527467,11.6615825 40.4527467,12.7553602 L40.4527467,20.1930491 C40.4527467,20.2659676 40.4272252,20.3279484 40.3761822,20.3789913 C40.3251393,20.4300343 40.2631585,20.4555558 40.19024,20.4555558 L38.1776889,20.4555558 C38.1047704,20.4555558 38.0427896,20.4300343 37.9917467,20.3789913 C37.9407037,20.3279484 37.9151822,20.2659676 37.9151822,20.1930491 L37.9151822,19.7774136 C37.9151822,19.7336625 37.9005985,19.704495 37.8714311,19.6899113 C37.8422637,19.6753276 37.8130963,19.6899113 37.7839289,19.7336625 C37.2734993,20.3315943 36.5297304,20.6305602 35.5526222,20.6305602 C34.7213511,20.6305602 33.98852,20.393575 33.3541289,19.9196047 C32.7197378,19.4456343 32.4025422,18.5815499 32.4025422,17.3273513 C32.4025422,16.014818 32.7853644,15.081461 33.5510089,14.5272802 C34.3166533,13.9730995 35.3557422,13.6960091 36.6682756,13.6960091 L37.8058044,13.6960091 C37.878723,13.6960091 37.9151822,13.6595499 37.9151822,13.5866313 L37.9151822,13.0178669 C37.9151822,12.4928536 37.7839289,12.0735721 37.5214222,11.7600225 C37.2589156,11.4464728 36.9307822,11.289698 36.5370222,11.289698 C36.2307644,11.289698 35.9755496,11.388138 35.7713778,11.585018 C35.5672059,11.781898 35.4432444,12.0480506 35.3994933,12.3834758 C35.3849096,12.5584802 35.2901156,12.6459825 35.1151111,12.6459825 L32.9931822,12.6459825 C32.8181778,12.6459825 32.7379674,12.5584802 32.7525511,12.3834758 C32.8254696,11.3917839 33.2155837,10.5969721 33.9228933,9.99904023 C34.630203,9.40110838 35.516163,9.10214246 36.5807733,9.10214246 Z M36.25264,18.5305069 C36.6901511,18.5305069 37.0766193,18.3919617 37.4120444,18.1148713 C37.7474696,17.837781 37.9151822,17.4513128 37.9151822,16.9554669 L37.9151822,15.7085602 C37.9151822,15.6356417 37.878723,15.5991825 37.8058044,15.5991825 L36.6682756,15.5991825 C36.1724296,15.5991825 35.7713778,15.7340817 35.46512,16.0038802 C35.1588622,16.2736788 35.0057333,16.6637928 35.0057333,17.1742225 C35.0057333,17.6263173 35.122403,17.9653884 35.3557422,18.1914358 C35.5890815,18.4174832 35.8880474,18.5305069 36.25264,18.5305069 Z M44.4450356,9.14589357 C45.5825644,9.14589357 46.4831082,9.44850542 47.1466667,10.0537291 C47.8102252,10.6589528 48.1420044,11.4719943 48.1420044,12.4928536 C48.1420044,12.5657721 48.116483,12.6277528 48.06544,12.6787958 C48.014397,12.7298388 47.9524163,12.7553602 47.8794978,12.7553602 L46.0419511,12.7553602 C45.9690326,12.7553602 45.9070519,12.7298388 45.8560089,12.6787958 C45.8049659,12.6277528 45.7794444,12.5657721 45.7794444,12.4928536 L45.7794444,12.3616002 C45.7794444,12.0115913 45.6591289,11.7199173 45.4184978,11.486578 C45.1778667,11.2532388 44.8752548,11.1365691 44.5106622,11.1365691 C44.1314859,11.1365691 43.8288741,11.2568847 43.6028267,11.4975158 C43.3767793,11.7381469 43.2637556,12.026175 43.2637556,12.3616002 C43.2637556,12.6386906 43.3512578,12.8720299 43.5262622,13.061618 C43.7012667,13.2512062 43.8981467,13.4006891 44.1169022,13.5100669 C44.3356578,13.6194447 44.7002504,13.7835113 45.21068,14.0022669 C45.8231956,14.2501899 46.3372711,14.4944669 46.7529067,14.735098 C47.1685422,14.9757291 47.5331348,15.3184462 47.8466844,15.7632491 C48.1602341,16.2080521 48.3170089,16.7585869 48.3170089,17.4148536 C48.3170089,18.3919617 47.9742919,19.164898 47.2888578,19.7336625 C46.6034237,20.3024269 45.6773585,20.5868091 44.5106622,20.5868091 C43.3585496,20.5868091 42.4397763,20.3097188 41.7543422,19.755538 C41.0689082,19.2013573 40.7261911,18.4502965 40.7261911,17.5023558 L40.7261911,17.3492269 C40.7261911,17.2763084 40.7517126,17.2143276 40.8027556,17.1632847 C40.8537985,17.1122417 40.9157793,17.0867202 40.9886978,17.0867202 L42.8699956,17.0867202 C42.9429141,17.0867202 43.0048948,17.1122417 43.0559378,17.1632847 C43.1069807,17.2143276 43.1325022,17.2763084 43.1325022,17.3492269 L43.1325022,17.4586047 C43.1325022,17.8086136 43.2674015,18.1002876 43.5372,18.3336269 C43.8069985,18.5669662 44.1387778,18.6836358 44.5325378,18.6836358 C44.9117141,18.6836358 45.21068,18.574258 45.4294356,18.3555025 C45.6481911,18.1367469 45.7575689,17.8596565 45.7575689,17.5242313 C45.7575689,17.2325573 45.6627748,16.9882802 45.4731867,16.7914002 C45.2835985,16.5945202 45.0794267,16.4450373 44.8606711,16.3429513 C44.6419156,16.2408654 44.2481556,16.0731528 43.6793911,15.8398136 C42.84812,15.5189721 42.1663319,15.1106284 41.6340267,14.6147825 C41.1017215,14.1189365 40.8355689,13.3824595 40.8355689,12.4053513 C40.8355689,11.3844921 41.1600563,10.5860343 41.8090311,10.009978 C42.4580059,9.43392172 43.3366741,9.14589357 44.4450356,9.14589357 Z M51.5098889,6.49895135 C51.5828074,6.49895135 51.6447882,6.52447283 51.6958311,6.57551579 C51.7468741,6.62655875 51.7723956,6.68853949 51.7723956,6.76145801 L51.7723956,9.16776912 C51.7723956,9.24068764 51.8088548,9.2771469 51.8817733,9.2771469 L53.2380578,9.2771469 C53.3109763,9.2771469 53.372957,9.30266838 53.424,9.35371135 C53.475043,9.40475431 53.5005644,9.46673505 53.5005644,9.53965357 L53.5005644,10.8084358 C53.5005644,10.8813543 53.475043,10.943335 53.424,10.994378 C53.372957,11.045421 53.3109763,11.0709425 53.2380578,11.0709425 L51.8817733,11.0709425 C51.8088548,11.0709425 51.7723956,11.1074017 51.7723956,11.1803202 L51.7723956,16.9117158 C51.7723956,17.4221454 51.8671896,17.7758002 52.0567778,17.9726802 C52.2192819,18.1414345 52.4514307,18.2325083 52.753224,18.2459015 L53.0630533,18.2461247 C53.1359719,18.2461247 53.1979526,18.2716462 53.2489956,18.3226891 C53.3000385,18.3737321 53.32556,18.4357128 53.32556,18.5086313 L53.32556,20.1930491 C53.32556,20.2659676 53.3000385,20.3279484 53.2489956,20.3789913 C53.1979526,20.4300343 53.1359719,20.4555558 53.0630533,20.4555558 L52.3192844,20.4555558 C51.3275926,20.4555558 50.5801778,20.2732595 50.07704,19.9086669 C49.5739022,19.5440743 49.3223333,18.8586402 49.3223333,17.8523647 L49.3223333,11.1803202 C49.3223333,11.1074017 49.2858741,11.0709425 49.2129556,11.0709425 L48.4473111,11.0709425 C48.3743926,11.0709425 48.3124119,11.045421 48.2613689,10.994378 C48.2103259,10.943335 48.1848044,10.8813543 48.1848044,10.8084358 L48.1848044,9.53965357 C48.1848044,9.46673505 48.2103259,9.40475431 48.2613689,9.35371135 C48.3124119,9.30266838 48.3743926,9.2771469 48.4473111,9.2771469 L49.2129556,9.2771469 C49.2858741,9.2771469 49.3223333,9.24068764 49.3223333,9.16776912 L49.3223333,6.76145801 C49.3223333,6.68853949 49.3478548,6.62655875 49.3988978,6.57551579 C49.4499407,6.52447283 49.5119215,6.49895135 49.58484,6.49895135 L51.5098889,6.49895135 Z M58.1882801,7.81148468 C59.0341349,7.81148468 59.7159231,8.12138838 60.2336445,8.74119579 C60.751366,9.3610032 61.0102268,10.1667528 61.0102268,11.1584447 C61.0102268,12.1501365 60.751366,12.9485943 60.2336445,13.553818 C59.7159231,14.1590417 59.0341349,14.4616536 58.1882801,14.4616536 L56.0226001,14.4616536 C55.9642653,14.4616536 55.9350979,14.490821 55.9350979,14.5491558 L55.9350979,20.2368002 C55.9350979,20.3826373 55.8621794,20.4555558 55.7163423,20.4555558 L55.4975868,20.4555558 C55.3517497,20.4555558 55.2788312,20.3826373 55.2788312,20.2368002 L55.2788312,8.03024023 C55.2788312,7.8844032 55.3517497,7.81148468 55.4975868,7.81148468 L58.1882801,7.81148468 Z M58.144529,13.8928891 C58.8007956,13.8928891 59.3331008,13.6413202 59.7414445,13.1381825 C60.1497882,12.6350447 60.3539601,11.9751321 60.3539601,11.1584447 C60.3539601,10.3417573 60.1497882,9.68184468 59.7414445,9.1787069 C59.3331008,8.67556912 58.8007956,8.42400023 58.144529,8.42400023 L56.0226001,8.42400023 C55.9642653,8.42400023 55.9350979,8.45316764 55.9350979,8.51150246 L55.9350979,13.8053869 C55.9350979,13.8637217 55.9642653,13.8928891 56.0226001,13.8928891 L58.144529,13.8928891 Z M62.1149423,20.4555558 C61.9691053,20.4555558 61.8961868,20.3826373 61.8961868,20.2368002 L61.8961868,5.36142246 C61.8961868,5.21558542 61.9691053,5.1426669 62.1149423,5.1426669 L62.3336979,5.1426669 C62.4795349,5.1426669 62.5524534,5.21558542 62.5524534,5.36142246 L62.5524534,20.2368002 C62.5524534,20.3826373 62.4795349,20.4555558 62.3336979,20.4555558 L62.1149423,20.4555558 Z M69.1692756,9.71465801 C69.1692756,9.56882098 69.2421941,9.49590246 69.3880312,9.49590246 L69.6067867,9.49590246 C69.7526237,9.49590246 69.8255423,9.56882098 69.8255423,9.71465801 L69.8255423,20.2368002 C69.8255423,20.3826373 69.7526237,20.4555558 69.6067867,20.4555558 L69.3880312,20.4555558 C69.2421941,20.4555558 69.1692756,20.3826373 69.1692756,20.2368002 L69.1692756,19.361778 C69.1692756,19.3180269 69.1546919,19.2925054 69.1255245,19.2852136 C69.0963571,19.2779217 69.0744815,19.2961513 69.0598978,19.3399025 C68.607803,20.1857573 67.8421586,20.6086847 66.7629645,20.6086847 C65.8879423,20.6086847 65.2025082,20.3425321 64.7066623,19.8102269 C64.2108163,19.2779217 63.9628934,18.4867558 63.9628934,17.4367291 L63.9628934,9.71465801 C63.9628934,9.56882098 64.0358119,9.49590246 64.1816489,9.49590246 L64.4004045,9.49590246 C64.5462415,9.49590246 64.61916,9.56882098 64.61916,9.71465801 L64.61916,17.2836002 C64.61916,18.1877899 64.8123941,18.8659321 65.1988623,19.3180269 C65.5853304,19.7701217 66.1358652,19.9961691 66.8504667,19.9961691 C67.5650682,19.9961691 68.1301867,19.7336625 68.5458223,19.2086491 C68.9614578,18.6836358 69.1692756,17.9617425 69.1692756,17.0429691 L69.1692756,9.71465801 Z M76.7710312,9.71465801 C76.7710312,9.56882098 76.8439497,9.49590246 76.9897867,9.49590246 L77.2304178,9.49590246 C77.3762549,9.49590246 77.4491734,9.56882098 77.4491734,9.71465801 L77.4491734,20.4118047 C77.4491734,23.3577128 76.1803912,24.8306669 73.6428267,24.8306669 C73.4678223,24.8306669 73.38032,24.7577484 73.38032,24.6119113 L73.38032,24.4587825 C73.38032,24.3129454 73.4532386,24.2400269 73.5990756,24.2400269 C74.7074371,24.2400269 75.5131867,23.9118936 76.0163245,23.2556269 C76.5194623,22.5993602 76.7710312,21.6441276 76.7710312,20.3899291 L76.7710312,19.361778 C76.7710312,19.3180269 76.7600934,19.2925054 76.7382178,19.2852136 C76.7163423,19.2779217 76.6908208,19.2888595 76.6616534,19.3180269 C76.4137304,19.7263706 76.0928889,20.0435662 75.6991289,20.2696136 C75.3053689,20.495661 74.860566,20.6086847 74.36472,20.6086847 C73.4896978,20.6086847 72.7823882,20.3170106 72.2427912,19.7336625 C71.7031941,19.1503143 71.4333956,18.3919617 71.4333956,17.4586047 L71.4333956,12.4928536 C71.4333956,11.5594965 71.7031941,10.797498 72.2427912,10.206858 C72.7823882,9.61621801 73.4896978,9.32089801 74.36472,9.32089801 C74.8751497,9.32089801 75.3272445,9.43392172 75.7210045,9.65996912 C76.1147645,9.88601653 76.4283141,10.2032121 76.6616534,10.6115558 C76.6908208,10.6407232 76.7163423,10.651661 76.7382178,10.6443691 C76.7600934,10.6370773 76.7710312,10.6115558 76.7710312,10.5678047 L76.7710312,9.71465801 Z M74.4740978,19.9961691 C75.1449482,19.9961691 75.695483,19.7591839 76.1257023,19.2852136 C76.5559215,18.8112432 76.7710312,18.1950817 76.7710312,17.4367291 L76.7710312,12.4928536 C76.7710312,11.734501 76.5559215,11.1183395 76.1257023,10.6443691 C75.695483,10.1703988 75.1449482,9.93341357 74.4740978,9.93341357 C73.77408,9.93341357 73.2016697,10.1703988 72.7568667,10.6443691 C72.3120637,11.1183395 72.0896623,11.734501 72.0896623,12.4928536 L72.0896623,17.4367291 C72.0896623,18.1950817 72.3120637,18.8112432 72.7568667,19.2852136 C73.2016697,19.7591839 73.77408,19.9961691 74.4740978,19.9961691 Z M79.8226712,7.04584023 C79.5455808,7.04584023 79.3195334,6.95833801 79.1445289,6.78333357 C78.9695245,6.60832912 78.8820223,6.38228172 78.8820223,6.10519135 C78.8820223,5.84268468 78.9695245,5.62392912 79.1445289,5.44892468 C79.3195334,5.27392023 79.5455808,5.18641801 79.8226712,5.18641801 C80.0851778,5.18641801 80.3039334,5.27392023 80.4789378,5.44892468 C80.6539423,5.62392912 80.7414445,5.84268468 80.7414445,6.10519135 C80.7414445,6.38228172 80.6539423,6.60832912 80.4789378,6.78333357 C80.3039334,6.95833801 80.0851778,7.04584023 79.8226712,7.04584023 Z M79.7132934,20.4555558 C79.5674563,20.4555558 79.4945378,20.3826373 79.4945378,20.2368002 L79.4945378,9.71465801 C79.4945378,9.56882098 79.5674563,9.49590246 79.7132934,9.49590246 L79.9320489,9.49590246 C80.077886,9.49590246 80.1508045,9.56882098 80.1508045,9.71465801 L80.1508045,20.2368002 C80.1508045,20.3826373 80.077886,20.4555558 79.9320489,20.4555558 L79.7132934,20.4555558 Z M85.4118756,9.34277357 C86.2723141,9.34277357 86.9431645,9.63444764 87.4244267,10.2177958 C87.9056889,10.8011439 88.14632,11.6105395 88.14632,12.6459825 L88.14632,20.2368002 C88.14632,20.3826373 88.0734015,20.4555558 87.9275645,20.4555558 L87.7088089,20.4555558 C87.5629719,20.4555558 87.4900534,20.3826373 87.4900534,20.2368002 L87.4900534,12.7334847 C87.4900534,11.8584625 87.2968193,11.1766743 86.9103512,10.6881202 C86.523883,10.1995662 85.9733482,9.95528912 85.2587467,9.95528912 C84.5441452,9.95528912 83.9753808,10.2177958 83.5524534,10.7428091 C83.129526,11.2678225 82.9180623,11.9897158 82.9180623,12.9084891 L82.9180623,20.2368002 C82.9180623,20.3826373 82.8451437,20.4555558 82.6993067,20.4555558 L82.4805512,20.4555558 C82.3347141,20.4555558 82.2617956,20.3826373 82.2617956,20.2368002 L82.2617956,9.71465801 C82.2617956,9.56882098 82.3347141,9.49590246 82.4805512,9.49590246 L82.6993067,9.49590246 C82.8451437,9.49590246 82.9180623,9.56882098 82.9180623,9.71465801 L82.9180623,10.7646847 C82.9180623,10.8084358 82.932646,10.8303113 82.9618134,10.8303113 C82.9909808,10.8303113 83.0128563,10.8084358 83.02744,10.7646847 C83.2607793,10.3125899 83.5852667,9.96258098 84.0009023,9.71465801 C84.4165378,9.46673505 84.8868623,9.34277357 85.4118756,9.34277357 Z M92.3136134,20.543058 C91.4531749,20.543058 90.7531571,20.2914891 90.21356,19.7883513 C89.673963,19.2852136 89.4041645,18.6544684 89.4041645,17.8961158 L89.4041645,17.786738 C89.4041645,17.640901 89.477083,17.5679825 89.62292,17.5679825 L89.8198,17.5679825 C89.9656371,17.5679825 90.0385556,17.640901 90.0385556,17.786738 L90.0385556,17.8742402 C90.0385556,18.4721721 90.2463734,18.9716639 90.6620089,19.3727158 C91.0776445,19.7737676 91.6354712,19.9742936 92.3354889,19.9742936 C92.9917556,19.9742936 93.5204149,19.7701217 93.9214667,19.361778 C94.3225186,18.9534343 94.5230445,18.4138373 94.5230445,17.7429869 C94.5230445,17.2617247 94.4136667,16.8679647 94.1949112,16.5617069 C93.9761556,16.2554491 93.710003,16.0111721 93.3964534,15.8288758 C93.0829037,15.6465795 92.6490386,15.4387617 92.0948578,15.2054225 C91.5115097,14.9574995 91.0448312,14.7314521 90.6948223,14.5272802 C90.3448134,14.3231084 90.0494934,14.0314343 89.8088623,13.652258 C89.5682312,13.2730817 89.4479156,12.7918195 89.4479156,12.2084713 C89.4479156,11.3626165 89.7067763,10.6844743 90.2244978,10.1740447 C90.7422193,9.66361505 91.4312993,9.40840023 92.2917378,9.40840023 C93.1375926,9.40840023 93.8193808,9.66726098 94.3371023,10.1849825 C94.8548237,10.7027039 95.1136845,11.3699084 95.1136845,12.1865958 L95.1136845,12.2522225 C95.1136845,12.3980595 95.040766,12.470978 94.8949289,12.470978 L94.7199245,12.470978 C94.5740874,12.470978 94.5011689,12.3980595 94.5011689,12.2522225 L94.5011689,12.1865958 C94.5011689,11.5594965 94.2933512,11.0381291 93.8777156,10.6224936 C93.46208,10.206858 92.9261289,9.99904023 92.2698623,9.99904023 C91.6135956,9.99904023 91.0885823,10.2032121 90.6948223,10.6115558 C90.3010623,11.0198995 90.1041823,11.5522047 90.1041823,12.2084713 C90.1041823,12.6459825 90.2026223,13.014221 90.3995023,13.3131869 C90.5963823,13.6121528 90.8443052,13.849138 91.1432712,14.0241425 C91.4422371,14.1991469 91.8469349,14.3960269 92.3573645,14.6147825 C92.9844637,14.8772891 93.4803097,15.1142743 93.8449023,15.325738 C94.2094949,15.5372017 94.5230445,15.8398136 94.7855512,16.2335736 C95.0480578,16.6273336 95.1793112,17.1304713 95.1793112,17.7429869 C95.1793112,18.5888417 94.9168045,19.2669839 94.3917912,19.7774136 C93.8667778,20.2878432 93.1740519,20.543058 92.3136134,20.543058 Z" id="Combined-Shape" fill="#000000" fill-rule="nonzero"></path>
    </g>
</svg>